<svg width="20" height="20" viewBox="0 0 20 20" fill="none" xmlns="http://www.w3.org/2000/svg">
<path d="M19.0837 13.4832V6.50817C19.0837 4.84234 18.5842 3.42283 17.5793 2.41918C16.5745 1.41562 15.1531 0.916504 13.4837 0.916504H6.50866C4.84284 0.916504 3.42356 1.41594 2.42 2.41951C1.41643 3.42307 0.916992 4.84235 0.916992 6.50817V13.4915C0.916992 15.1572 1.41637 16.5768 2.42033 17.5795C3.4243 18.5822 4.84402 19.0793 6.51001 19.0748C6.51025 19.0748 6.51048 19.0748 6.51072 19.0748L13.492 19.0748C15.1578 19.0748 16.5771 18.5754 17.5807 17.5718C18.5842 16.5683 19.0837 15.149 19.0837 13.4832Z" stroke="#6F5EB6" stroke-width="1.5"/>
<path d="M14.1049 8.04495L10.5299 4.46994C10.39 4.3301 10.2 4.25 9.9998 4.25C9.79961 4.25 9.60959 4.3301 9.46975 4.46994L5.89475 8.04495C5.75429 8.18541 5.6748 8.38402 5.6748 8.575C5.6748 8.7647 5.74507 8.95538 5.89475 9.10505C6.18523 9.39554 6.66438 9.39554 6.95486 9.10505L9.2498 6.81011V15C9.2498 15.4107 9.5891 15.75 9.9998 15.75C10.4105 15.75 10.7498 15.4107 10.7498 15V6.81011L13.0447 9.10505C13.3352 9.39554 13.8144 9.39554 14.1049 9.10505C14.3953 8.81457 14.3953 8.33543 14.1049 8.04495Z" fill="#6F5EB6" stroke="#6F5EB6" stroke-width="0.25"/>
</svg>
