<svg width="64" height="64" viewBox="0 0 64 64" fill="none" xmlns="http://www.w3.org/2000/svg">
<path d="M32.0013 5.33366C17.2737 5.33366 5.33464 17.2727 5.33464 32.0003C5.33464 46.7279 17.2737 58.667 32.0013 58.667C46.7289 58.667 58.668 46.7279 58.668 32.0003C58.668 17.2727 46.7289 5.33366 32.0013 5.33366Z" fill="#6751C1" fill-opacity="0.2"/>
<path d="M35.3602 20.5867C35.8669 20.5867 36.3735 20.7734 36.7735 21.1734C37.5469 21.9467 37.5469 23.2267 36.7735 24.0001L28.7735 32.0001L36.7735 40.0001C37.5468 40.7734 37.5468 42.0534 36.7735 42.8267C36.0002 43.6001 34.7202 43.6001 33.9468 42.8267L24.5335 33.4134C23.7602 32.6401 23.7602 31.3601 24.5335 30.5867L33.9469 21.1734C34.3469 20.7734 34.8535 20.5867 35.3602 20.5867Z" fill="#6751C1"/>
</svg>
