<svg width="64" height="64" viewBox="0 0 64 64" fill="none" xmlns="http://www.w3.org/2000/svg">
<path d="M31.9987 58.6663C46.7263 58.6663 58.6654 46.7273 58.6654 31.9997C58.6654 17.2721 46.7263 5.33301 31.9987 5.33301C17.2711 5.33301 5.33203 17.2721 5.33203 31.9997C5.33203 46.7273 17.2711 58.6663 31.9987 58.6663Z" fill="#6751C1" fill-opacity="0.2"/>
<path d="M28.6398 43.4133C28.1331 43.4133 27.6265 43.2266 27.2265 42.8266C26.4532 42.0533 26.4532 40.7733 27.2265 39.9999L35.2265 31.9999L27.2265 23.9999C26.4532 23.2266 26.4532 21.9466 27.2265 21.1733C27.9998 20.3999 29.2798 20.3999 30.0532 21.1733L39.4665 30.5866C40.2398 31.3599 40.2398 32.6399 39.4665 33.4133L30.0532 42.8266C29.6532 43.2266 29.1465 43.4133 28.6398 43.4133Z" fill="#6751C1"/>
</svg>
