<svg width="96" height="81" viewBox="0 0 96 81" fill="none" xmlns="http://www.w3.org/2000/svg">
<g clip-path="url(#clip0_534_6078)">
<g clip-path="url(#clip1_534_6078)">
<path fill-rule="evenodd" clip-rule="evenodd" d="M36 58.1229V70.8333H87.9802C92.4094 70.8333 96 67.1248 96 62.4996V8.33378C96 3.73116 92.4119 0 87.9802 0H8.01979C3.59058 0 0 3.70858 0 8.33378V62.4996C0 67.1022 3.58811 70.8333 8.01979 70.8333H16V58.1229C13.5256 55.4926 12 51.8902 12 47.9167C12 39.8625 18.268 33.3333 26 33.3333C33.732 33.3333 40 39.8625 40 47.9167C40 51.8902 38.4744 55.4926 36 58.1229ZM20 61.0966V81.6666L26 75.4167L32 81.6666V61.0966C30.1815 61.9965 28.1472 62.5 26 62.5C23.8528 62.5 21.8185 61.9965 20 61.0966ZM12 20.8333V25H84V20.8333H12ZM48 33.3333V37.5H84V33.3333H48ZM60 45.8333V50H84V45.8333H60ZM26 58.3333C31.5228 58.3333 36 53.6696 36 47.9167C36 42.1637 31.5228 37.5 26 37.5C20.4772 37.5 16 42.1637 16 47.9167C16 53.6696 20.4772 58.3333 26 58.3333Z" fill="#4F39A5"/>
</g>
</g>
<defs>
<clipPath id="clip0_534_6078">
<rect width="96" height="81" fill="white"/>
</clipPath>
<clipPath id="clip1_534_6078">
<rect width="96" height="81" fill="white"/>
</clipPath>
</defs>
</svg>
