<svg width="28" height="28" viewBox="0 0 28 28" fill="none" xmlns="http://www.w3.org/2000/svg">
<path d="M19.587 0.666504H8.41366C3.56033 0.666504 0.666992 3.55984 0.666992 8.41317V19.5732C0.666992 24.4398 3.56033 27.3332 8.41366 27.3332H19.5737C24.427 27.3332 27.3203 24.4398 27.3203 19.5865V8.41317C27.3337 3.55984 24.4403 0.666504 19.587 0.666504ZM20.3737 10.9332L12.8137 18.4932C12.627 18.6798 12.3737 18.7865 12.107 18.7865C11.8403 18.7865 11.587 18.6798 11.4003 18.4932L7.62699 14.7198C7.24033 14.3332 7.24033 13.6932 7.62699 13.3065C8.01366 12.9198 8.65366 12.9198 9.04033 13.3065L12.107 16.3732L18.9603 9.51984C19.347 9.13317 19.987 9.13317 20.3737 9.51984C20.7603 9.9065 20.7603 10.5332 20.3737 10.9332Z" fill="#4F39A5"/>
</svg>
