<svg width="352" height="155" viewBox="0 0 352 155" fill="none" xmlns="http://www.w3.org/2000/svg">
<path fill-rule="evenodd" clip-rule="evenodd" d="M238 2C238 6.41828 234.418 10 230 10C225.582 10 222 6.41828 222 2C222 0.976185 221.255 0 220.231 0H32C14.3269 0 0 14.3269 0 32V123C0 140.673 14.3269 155 32 155H220.231C221.255 155 222 154.024 222 153C222 148.582 225.582 145 230 145C234.418 145 238 148.582 238 153C238 154.024 238.745 155 239.769 155H320C337.673 155 352 140.673 352 123V32C352 14.3269 337.673 0 320 0H239.769C238.745 0 238 0.976185 238 2ZM232 20C232 18.8954 231.105 18 230 18C228.895 18 228 18.8954 228 20V23.8C228 24.9046 228.895 25.8 230 25.8C231.105 25.8 232 24.9046 232 23.8V20ZM232 35.2C232 34.0954 231.105 33.2 230 33.2C228.895 33.2 228 34.0954 228 35.2V42.8C228 43.9046 228.895 44.8 230 44.8C231.105 44.8 232 43.9046 232 42.8V35.2ZM232 54.2C232 53.0954 231.105 52.2 230 52.2C228.895 52.2 228 53.0954 228 54.2V61.8C228 62.9046 228.895 63.8 230 63.8C231.105 63.8 232 62.9046 232 61.8V54.2ZM232 73.2C232 72.0954 231.105 71.2 230 71.2C228.895 71.2 228 72.0954 228 73.2V80.8C228 81.9046 228.895 82.8 230 82.8C231.105 82.8 232 81.9046 232 80.8V73.2ZM232 92.2C232 91.0954 231.105 90.2 230 90.2C228.895 90.2 228 91.0954 228 92.2V99.8C228 100.905 228.895 101.8 230 101.8C231.105 101.8 232 100.905 232 99.8V92.2ZM232 111.2C232 110.095 231.105 109.2 230 109.2C228.895 109.2 228 110.095 228 111.2V118.8C228 119.905 228.895 120.8 230 120.8C231.105 120.8 232 119.905 232 118.8V111.2ZM232 130.2C232 129.095 231.105 128.2 230 128.2C228.895 128.2 228 129.095 228 130.2V134C228 135.105 228.895 136 230 136C231.105 136 232 135.105 232 134V130.2Z" fill="url(#paint0_radial_720_19507)"/>
<defs>
<radialGradient id="paint0_radial_720_19507" cx="0" cy="0" r="1" gradientUnits="userSpaceOnUse" gradientTransform="translate(57.5 31.5) rotate(15.276) scale(241.016 241.016)">
<stop stop-color="#8A5DD2"/>
<stop offset="1" stop-color="#3A2C72"/>
</radialGradient>
</defs>
</svg>
