<svg width="32" height="32" viewBox="0 0 32 32" fill="none" xmlns="http://www.w3.org/2000/svg">
<path fill-rule="evenodd" clip-rule="evenodd" d="M2.66602 11.9997V19.9997C2.66602 20.0262 2.6661 20.0526 2.66627 20.079V20.4798C2.66929 20.4764 2.67231 20.4729 2.67533 20.4695C2.85013 24.8009 5.46959 26.6663 9.33268 26.6663H11.2664C11.2663 26.6664 11.2663 26.6664 11.2663 26.6665H22.6663C26.6663 26.6665 29.3329 24.6665 29.3329 19.9998V11.9998C29.3329 11.9733 29.3329 11.9469 29.3327 11.9206V11.5197C29.3297 11.5231 29.3266 11.5266 29.3236 11.53C29.1488 7.19858 26.5294 5.33314 22.6663 5.33314H20.7326C20.7326 5.3331 20.7326 5.33305 20.7327 5.33301H9.33268C5.33268 5.33301 2.66602 7.33301 2.66602 11.9997Z" fill="#6F5EB6"/>
<path d="M21 14.7998H11C10.4533 14.7998 10 14.3465 10 13.7998C10 13.2531 10.4533 12.7998 11 12.7998H21C21.5467 12.7998 22 13.2531 22 13.7998C22 14.3465 21.5467 14.7998 21 14.7998Z" fill="white"/>
<path d="M21 20H11C10.4533 20 10 19.5467 10 19C10 18.4533 10.4533 18 11 18H21C21.5467 18 22 18.4533 22 19C22 19.5467 21.5467 20 21 20Z" fill="white"/>
</svg>
