<svg width="32" height="33" viewBox="0 0 32 33" fill="none" xmlns="http://www.w3.org/2000/svg">
<path d="M12.0003 2.72754C8.50699 2.72754 5.66699 5.63229 5.66699 9.20527C5.66699 12.7101 8.34699 15.5466 11.8403 15.6694C11.947 15.6557 12.0537 15.6557 12.1337 15.6694C12.1603 15.6694 12.1737 15.6694 12.2003 15.6694C12.2137 15.6694 12.2137 15.6694 12.227 15.6694C15.6403 15.5466 18.3203 12.7101 18.3337 9.20527C18.3337 5.63229 15.4937 2.72754 12.0003 2.72754Z" fill="#6F5EB6"/>
<path d="M18.7733 19.2964C15.0533 16.7599 8.98661 16.7599 5.23995 19.2964C3.54661 20.4556 2.61328 22.0239 2.61328 23.7013C2.61328 25.3787 3.54661 26.9334 5.22661 28.0789C7.09328 29.3608 9.54661 30.0017 11.9999 30.0017C14.4533 30.0017 16.9066 29.3608 18.7733 28.0789C20.4533 26.9197 21.3866 25.3651 21.3866 23.674C21.3733 21.9966 20.4533 20.442 18.7733 19.2964Z" fill="#6F5EB6"/>
<path d="M26.6545 10.01C26.8678 12.6556 25.0278 14.974 22.4811 15.2876C22.4678 15.2876 22.4678 15.2876 22.4545 15.2876H22.4145C22.3345 15.2876 22.2545 15.2876 22.1878 15.3149C20.8945 15.3831 19.7078 14.9603 18.8145 14.183C20.1878 12.9284 20.9745 11.0464 20.8145 9.00082C20.7211 7.8962 20.3478 6.88704 19.7878 6.02789C20.2945 5.76878 20.8811 5.60513 21.4811 5.55058C24.0945 5.31875 26.4278 7.3098 26.6545 10.01Z" fill="#6F5EB6"/>
<path d="M29.32 22.6241C29.2133 23.9469 28.3867 25.0925 27 25.8698C25.6667 26.6198 23.9867 26.9744 22.32 26.9335C23.28 26.0471 23.84 24.9424 23.9467 23.7696C24.08 22.0786 23.2933 20.4558 21.72 19.1602C20.8267 18.4374 19.7867 17.8647 18.6533 17.4419C21.6 16.5691 25.3067 17.1555 27.5867 19.0375C28.8133 20.0466 29.44 21.3149 29.32 22.6241Z" fill="#6F5EB6"/>
</svg>
