<svg width="32" height="32" viewBox="0 0 32 32" fill="none" xmlns="http://www.w3.org/2000/svg">
<path d="M22.3998 9.6001H16.9998V15.5201L19.7598 12.7601C19.9598 12.5601 20.2132 12.4668 20.4665 12.4668C20.7198 12.4668 20.9732 12.5601 21.1732 12.7601C21.5598 13.1468 21.5598 13.7868 21.1732 14.1734L16.7065 18.6401C16.3198 19.0268 15.6798 19.0268 15.2932 18.6401L10.8265 14.1734C10.4398 13.7868 10.4398 13.1468 10.8265 12.7601C11.2132 12.3734 11.8532 12.3734 12.2398 12.7601L14.9998 15.5201V9.6001H9.59984C5.33317 9.6001 2.6665 12.2668 2.6665 16.5334V19.9868C2.6665 24.2668 5.33317 26.9334 9.59984 26.9334H22.3865C26.6532 26.9334 29.3198 24.2668 29.3198 20.0001V16.5334C29.3332 12.2668 26.6665 9.6001 22.3998 9.6001Z" fill="#6F5EB6"/>
<path d="M17 1.2666C17 0.719935 16.5467 0.266602 16 0.266602C15.4533 0.266602 15 0.719935 15 1.2666V9.59993H17V1.2666Z" fill="#6F5EB6"/>
</svg>
