<svg width="16" height="18" viewBox="0 0 16 18" fill="none" xmlns="http://www.w3.org/2000/svg">
<path d="M2.50843 0.667969H13.4834C14.4001 0.667969 15.1501 1.42629 15.1501 2.35129V4.20129C15.1501 4.87629 14.7334 5.71797 14.3168 6.13463L10.7418 9.33463C10.2418 9.75963 9.90843 10.6013 9.90843 11.268V14.8846C9.90843 15.393 9.5751 16.0596 9.15843 16.318L8.0001 17.0846C6.91676 17.7596 5.4251 17.0013 5.4251 15.6513V11.193C5.4251 10.6013 5.09176 9.84298 4.75843 9.42631L1.6001 6.05964C1.18343 5.63464 0.850098 4.88465 0.850098 4.37631V2.44297C0.850098 1.42631 1.6001 0.667969 2.50843 0.667969Z" fill="#4F39A5"/>
</svg>
