<svg width="20" height="20" viewBox="0 0 20 20" fill="none" xmlns="http://www.w3.org/2000/svg">
<path d="M4.50843 1.66797H15.4834C16.4001 1.66797 17.1501 2.42629 17.1501 3.35129V5.20129C17.1501 5.87629 16.7334 6.71797 16.3168 7.13463L12.7418 10.3346C12.2418 10.7596 11.9084 11.6013 11.9084 12.268V15.8846C11.9084 16.393 11.5751 17.0596 11.1584 17.318L10.0001 18.0846C8.91676 18.7596 7.4251 18.0013 7.4251 16.6513V12.193C7.4251 11.6013 7.09176 10.843 6.75843 10.4263L3.6001 7.05964C3.18343 6.63464 2.8501 5.88465 2.8501 5.37631V3.44297C2.8501 2.42631 3.6001 1.66797 4.50843 1.66797Z" fill="white"/>
</svg>
