<svg width="150" height="150" viewBox="0 0 150 150" fill="none" xmlns="http://www.w3.org/2000/svg">
<path d="M136.063 13.9375C134.188 12.0625 131.125 12.0625 129.25 13.9375L13.9375 129.312C12.0625 131.187 12.0625 134.25 13.9375 136.125C14.875 137 16.0625 137.5 17.3125 137.5C18.5625 137.5 19.75 137 20.6875 136.062L136.063 20.6875C138 18.8125 138 15.8125 136.063 13.9375Z" fill="#A79CD2"/>
<path d="M56.25 64.875C64.4652 64.875 71.125 58.2152 71.125 50C71.125 41.7848 64.4652 35.125 56.25 35.125C48.0348 35.125 41.375 41.7848 41.375 50C41.375 58.2152 48.0348 64.875 56.25 64.875Z" fill="#A79CD2"/>
<path d="M135.063 33.6875L127.437 41.3125C127.937 43.625 128.125 46.125 128.125 48.8125V78.8125L127.313 78.125C122.438 73.9375 114.562 73.9375 109.687 78.125L83.6875 100.438C79.25 104.25 72.25 104.625 67.375 101.375L33.75 135C34 135.125 34.25 135.188 34.5 135.25C36.1875 135.813 37.875 136.25 39.6875 136.625C40.3125 136.75 40.9375 136.875 41.625 136.938C43.9375 137.25 46.3125 137.5 48.8125 137.5H101.188C123.938 137.5 137.5 123.938 137.5 101.188V48.8125C137.5 43.1875 136.688 38.125 135.063 33.6875Z" fill="#A79CD2"/>
<path d="M135.063 33.6875L127.438 41.3125C127.937 43.625 128.125 46.125 128.125 48.8125V78.8125L127.313 78.125C122.438 73.9375 114.562 73.9375 109.687 78.125L83.6875 100.438C79.25 104.25 72.25 104.625 67.375 101.375L33.6875 135.063C38.125 136.688 43.1875 137.5 48.8125 137.5H101.188C123.938 137.5 137.5 123.938 137.5 101.188V48.8125C137.5 43.1875 136.688 38.125 135.063 33.6875Z" fill="#A79CD2"/>
<path d="M127.875 22.125L121.25 28.75C116.75 24.1875 110 21.875 101.188 21.875H48.8125C31.1875 21.875 21.875 31.1875 21.875 48.8125V101.188C21.875 105.938 22.6875 110 24.0625 113.5L47.4375 97.8125C49.5625 96.375 52 95.625 54.4375 95.5625L22.125 127.875C19.625 125.375 17.5625 122.375 16 118.938C13.6875 113.938 12.5 108 12.5 101.188V48.8125C12.5 26.0625 26.0625 12.5 48.8125 12.5H101.188C112.563 12.5 121.625 15.875 127.875 22.125Z" fill="#A79CD2"/>
</svg>
