<svg width="28" height="28" viewBox="0 0 28 28" fill="none" xmlns="http://www.w3.org/2000/svg">
<path d="M9.16641 23.9C9.13307 23.9 9.08863 23.9223 9.0553 23.9223C6.89974 22.8556 5.14418 21.0889 4.06641 18.9334C4.06641 18.9 4.08863 18.8556 4.08863 18.8223C5.44418 19.2223 6.84418 19.5223 8.23307 19.7556C8.47752 21.1556 8.76641 22.5445 9.16641 23.9Z" fill="#6751C1"/>
<path d="M23.9323 18.9445C22.8323 21.1556 20.999 22.9445 18.7656 24.0223C19.1878 22.6112 19.5434 21.1889 19.7767 19.7556C21.1767 19.5223 22.5545 19.2223 23.9101 18.8223C23.899 18.8667 23.9323 18.9112 23.9323 18.9445Z" fill="#6751C1"/>
<path d="M24.0212 9.23309C22.6212 8.81087 21.2101 8.46643 19.7767 8.22198C19.5434 6.78865 19.199 5.36643 18.7656 3.97754C21.0656 5.07754 22.9212 6.93309 24.0212 9.23309Z" fill="#6751C1"/>
<path d="M9.16545 4.09974C8.76545 5.4553 8.47656 6.83307 8.24323 8.23307C6.8099 8.4553 5.38767 8.81085 3.97656 9.23307C5.05434 6.99974 6.84323 5.16641 9.05434 4.06641C9.08767 4.06641 9.13212 4.09974 9.16545 4.09974Z" fill="#6751C1"/>
<path d="M17.8766 7.98867C15.2989 7.69978 12.6989 7.69978 10.1211 7.98867C10.3989 6.46645 10.7544 4.94423 11.2544 3.47756C11.2766 3.38867 11.2655 3.32201 11.2766 3.23312C12.1544 3.02201 13.0544 2.88867 13.9989 2.88867C14.9322 2.88867 15.8433 3.02201 16.71 3.23312C16.7211 3.32201 16.7211 3.38867 16.7433 3.47756C17.2433 4.95534 17.5989 6.46645 17.8766 7.98867Z" fill="#6751C1"/>
<path d="M7.98867 17.8776C6.45534 17.5998 4.94423 17.2443 3.47756 16.7443C3.38867 16.7221 3.32201 16.7332 3.23312 16.7221C3.02201 15.8443 2.88867 14.9443 2.88867 13.9998C2.88867 13.0665 3.02201 12.1554 3.23312 11.2887C3.32201 11.2776 3.38867 11.2776 3.47756 11.2554C4.95534 10.7665 6.45534 10.3998 7.98867 10.1221C7.71089 12.6998 7.71089 15.2998 7.98867 17.8776Z" fill="#6751C1"/>
<path d="M25.1098 13.9998C25.1098 14.9443 24.9764 15.8443 24.7653 16.7221C24.6764 16.7332 24.6098 16.7221 24.5209 16.7443C23.0431 17.2332 21.532 17.5998 20.0098 17.8776C20.2987 15.2998 20.2987 12.6998 20.0098 10.1221C21.532 10.3998 23.0542 10.7554 24.5209 11.2554C24.6098 11.2776 24.6764 11.2887 24.7653 11.2887C24.9764 12.1665 25.1098 13.0665 25.1098 13.9998Z" fill="#6751C1"/>
<path d="M17.8766 20.0107C17.5989 21.5441 17.2433 23.0552 16.7433 24.5219C16.7211 24.6107 16.7211 24.6774 16.71 24.7663C15.8433 24.9774 14.9322 25.1107 13.9989 25.1107C13.0544 25.1107 12.1544 24.9774 11.2766 24.7663C11.2655 24.6774 11.2766 24.6107 11.2544 24.5219C10.7655 23.0441 10.3989 21.5441 10.1211 20.0107C11.41 20.1552 12.6989 20.2552 13.9989 20.2552C15.2989 20.2552 16.5989 20.1552 17.8766 20.0107Z" fill="#6751C1"/>
<path d="M18.1806 18.1811C15.4016 18.5317 12.5966 18.5317 9.81765 18.1811C9.46703 15.4021 9.46703 12.5971 9.81765 9.81814C12.5966 9.46752 15.4016 9.46752 18.1806 9.81814C18.5312 12.5971 18.5312 15.4021 18.1806 18.1811Z" fill="#6751C1"/>
</svg>
