<svg width="24" height="24" viewBox="0 0 24 24" fill="none" xmlns="http://www.w3.org/2000/svg">
<path fill-rule="evenodd" clip-rule="evenodd" d="M6.30958 11.9993C6.30958 11.3498 6.41739 10.727 6.61005 10.1429L3.23976 7.56934C2.58289 8.90292 2.21289 10.4057 2.21289 11.9993C2.21289 13.5916 2.58258 15.0933 3.23835 16.4261L6.60676 13.8476C6.41598 13.2662 6.30958 12.6457 6.30958 11.9993Z" fill="#FBBC05"/>
<path fill-rule="evenodd" clip-rule="evenodd" d="M12.229 6.09091C13.6401 6.09091 14.9146 6.5909 15.916 7.40902L18.8291 4.49998C17.0539 2.95452 14.778 2 12.229 2C8.27151 2 4.87028 4.26311 3.2417 7.56996L6.61183 10.1435C7.38839 7.78636 9.60197 6.09091 12.229 6.09091Z" fill="#EA4335"/>
<path fill-rule="evenodd" clip-rule="evenodd" d="M12.229 17.91C9.60212 17.91 7.38854 16.2146 6.61199 13.8574L3.2417 16.4305C4.87028 19.7378 8.27151 22.001 12.229 22.001C14.6715 22.001 17.0035 21.1336 18.7536 19.5086L15.5546 17.0355C14.6519 17.6041 13.5152 17.91 12.229 17.91Z" fill="#34A853"/>
<path fill-rule="evenodd" clip-rule="evenodd" d="M21.7869 12.0007C21.7869 11.4098 21.6958 10.7734 21.5592 10.1826H12.228V14.0462H17.5992C17.3306 15.3635 16.5997 16.3762 15.5536 17.0352L18.7527 19.5083C20.5911 17.8021 21.7869 15.2602 21.7869 12.0007Z" fill="#4285F4"/>
</svg>
