<svg width="32" height="32" viewBox="0 0 32 32" fill="none" xmlns="http://www.w3.org/2000/svg">
<path d="M15.1996 7.70568L16.0003 8.77594L16.801 7.70568C17.9678 6.1461 19.8368 5.1333 21.9203 5.1333C25.4567 5.1333 28.3337 8.01424 28.3337 11.5866C28.3337 13.0645 28.098 14.4275 27.6889 15.6921L27.6889 15.6921L27.6868 15.6987C26.7051 18.8054 24.689 21.3209 22.4969 23.2049C20.3003 25.0927 17.9845 26.2965 16.5049 26.7999L16.5049 26.7999L16.4942 26.8036C16.4078 26.8341 16.2288 26.8666 16.0003 26.8666C15.7718 26.8666 15.5928 26.8341 15.5065 26.8036L15.5065 26.8036L15.4958 26.7999C14.0162 26.2965 11.7003 25.0927 9.50378 23.2049C7.31164 21.3209 5.29558 18.8054 4.31385 15.6987L4.31387 15.6986L4.31177 15.6921C3.90261 14.4275 3.66699 13.0645 3.66699 11.5866C3.66699 8.01424 6.54394 5.1333 10.0803 5.1333C12.1639 5.1333 14.0328 6.1461 15.1996 7.70568Z" stroke="#4F39A5" stroke-width="2"/>
</svg>
