<svg width="88" height="88" viewBox="0 0 88 88" fill="none" xmlns="http://www.w3.org/2000/svg">
<path d="M9.45993 69.7014L9.3866 69.7747C8.3966 67.6114 7.77327 65.1547 7.5166 62.4414C7.77327 65.1181 8.46993 67.5381 9.45993 69.7014Z" fill="#E1DCF3"/>
<path d="M33.0001 38.0588C37.8197 38.0588 41.7268 34.1517 41.7268 29.3321C41.7268 24.5125 37.8197 20.6055 33.0001 20.6055C28.1805 20.6055 24.2734 24.5125 24.2734 29.3321C24.2734 34.1517 28.1805 38.0588 33.0001 38.0588Z" fill="#E1DCF3"/>
<path d="M59.364 7.33203H28.6373C15.2907 7.33203 7.33398 15.2887 7.33398 28.6354V59.362C7.33398 63.3587 8.03065 66.842 9.38732 69.7754C12.5407 76.742 19.2873 80.6654 28.6373 80.6654H59.364C72.7107 80.6654 80.6673 72.7087 80.6673 59.362V50.9654V28.6354C80.6673 15.2887 72.7107 7.33203 59.364 7.33203ZM74.6907 45.832C71.8307 43.3754 67.2106 43.3754 64.3507 45.832L49.0973 58.922C46.2373 61.3787 41.6173 61.3787 38.7573 58.922L37.5107 57.8954C34.9073 55.622 30.764 55.402 27.8307 57.382L14.1173 66.5854C13.3107 64.532 12.834 62.1487 12.834 59.362V28.6354C12.834 18.2954 18.2973 12.832 28.6373 12.832H59.364C69.704 12.832 75.1673 18.2954 75.1673 28.6354V46.2354L74.6907 45.832Z" fill="#E1DCF3"/>
</svg>
