<svg width="28" height="28" viewBox="0 0 28 28" fill="none" xmlns="http://www.w3.org/2000/svg">
<g clip-path="url(#clip0_436_908)">
<path d="M13.9993 17.3332C15.8403 17.3332 17.3327 15.8408 17.3327 13.9998C17.3327 12.1589 15.8403 10.6665 13.9993 10.6665C12.1584 10.6665 10.666 12.1589 10.666 13.9998C10.666 15.8408 12.1584 17.3332 13.9993 17.3332Z" fill="#E1548F"/>
<path d="M18.582 3.58301H9.41536C7.86827 3.58301 6.38454 4.19759 5.29057 5.29155C4.19661 6.38551 3.58203 7.86924 3.58203 9.41634V18.583C3.58203 20.1301 4.19661 21.6138 5.29057 22.7078C6.38454 23.8018 7.86827 24.4163 9.41536 24.4163H18.582C20.1291 24.4163 21.6129 23.8018 22.7068 22.7078C23.8008 21.6138 24.4154 20.1301 24.4154 18.583V9.41634C24.4154 7.86924 23.8008 6.38551 22.7068 5.29155C21.6129 4.19759 20.1291 3.58301 18.582 3.58301ZM13.9987 18.9997C13.0098 18.9997 12.0431 18.7064 11.2208 18.157C10.3986 17.6076 9.75774 16.8267 9.3793 15.9131C9.00086 14.9995 8.90185 13.9941 9.09477 13.0242C9.2877 12.0543 9.7639 11.1634 10.4632 10.4641C11.1624 9.76488 12.0533 9.28867 13.0232 9.09575C13.9932 8.90282 14.9985 9.00184 15.9121 9.38028C16.8257 9.75871 17.6066 10.3996 18.156 11.2218C18.7055 12.0441 18.9987 13.0108 18.9987 13.9997C18.9987 15.3258 18.4719 16.5975 17.5342 17.5352C16.5965 18.4729 15.3248 18.9997 13.9987 18.9997ZM19.4154 9.83301C19.1681 9.83301 18.9265 9.7597 18.7209 9.62234C18.5153 9.48499 18.3551 9.28977 18.2605 9.06136C18.1659 8.83295 18.1411 8.58162 18.1894 8.33914C18.2376 8.09667 18.3567 7.87394 18.5315 7.69912C18.7063 7.52431 18.929 7.40526 19.1715 7.35703C19.414 7.30879 19.6653 7.33355 19.8937 7.42816C20.1221 7.52277 20.3173 7.68298 20.4547 7.88855C20.5921 8.09411 20.6654 8.33578 20.6654 8.58301C20.6654 8.91453 20.5337 9.23247 20.2992 9.46689C20.0648 9.70131 19.7469 9.83301 19.4154 9.83301Z" fill="#E1548F"/>
</g>
<defs>
<clipPath id="clip0_436_908">
<rect width="26.6667" height="26.6667" fill="white" transform="translate(0.666016 0.666504)"/>
</clipPath>
</defs>
</svg>
