<svg width="24" height="24" viewBox="0 0 24 24" fill="none" xmlns="http://www.w3.org/2000/svg">
<g clip-path="url(#clip0_436_888)">
<path d="M16.4 2H7.6C6.11479 2 4.69041 2.59 3.6402 3.6402C2.59 4.69041 2 6.11479 2 7.6V16.4C2 17.8852 2.59 19.3096 3.6402 20.3598C4.69041 21.41 6.11479 22 7.6 22H16.4C17.8852 22 19.3096 21.41 20.3598 20.3598C21.41 19.3096 22 17.8852 22 16.4C22 16.4 22 9.08521 22 7.6C22 6.11479 21.41 4.69041 20.3598 3.6402C19.3096 2.59 17.8852 2 16.4 2Z" fill="#6F5EB6"/>
<path d="M6.60455 15.8791C6.36538 15.8791 6.16705 15.6808 6.16705 15.4416V12.1166C6.13788 10.5358 6.72705 9.04247 7.82372 7.92247C8.92038 6.8083 10.3904 6.1958 11.9712 6.1958C15.2029 6.1958 17.8337 8.82663 17.8337 12.0583V15.3833C17.8337 15.6225 17.6354 15.8208 17.3962 15.8208C17.157 15.8208 16.9587 15.6225 16.9587 15.3833V12.0583C16.9587 9.3108 14.7245 7.0708 11.9712 7.0708C10.6237 7.0708 9.37538 7.58997 8.44788 8.53497C7.51455 9.4858 7.01872 10.7516 7.04205 12.105V15.4358C7.04205 15.6808 6.84955 15.8791 6.60455 15.8791Z" fill="white"/>
<path d="M8.46435 12.2627H8.38852C7.16352 12.2627 6.16602 13.2602 6.16602 14.4852V15.5819C6.16602 16.8069 7.16352 17.8044 8.38852 17.8044H8.46435C9.68935 17.8044 10.6868 16.8069 10.6868 15.5819V14.4852C10.6868 13.2602 9.68935 12.2627 8.46435 12.2627Z" fill="white"/>
<path d="M15.6108 12.2627H15.535C14.31 12.2627 13.3125 13.2602 13.3125 14.4852V15.5819C13.3125 16.8069 14.31 17.8044 15.535 17.8044H15.6108C16.8358 17.8044 17.8333 16.8069 17.8333 15.5819V14.4852C17.8333 13.2602 16.8358 12.2627 15.6108 12.2627Z" fill="white"/>
</g>
<defs>
<clipPath id="clip0_436_888">
<rect width="24" height="24" fill="white"/>
</clipPath>
</defs>
</svg>
