<svg width="28" height="28" viewBox="0 0 28 28" fill="none" xmlns="http://www.w3.org/2000/svg">
<g clip-path="url(#clip0_436_914)">
<path d="M18.582 3.58301H9.41536C7.86827 3.58301 6.38454 4.19759 5.29057 5.29155C4.19661 6.38551 3.58203 7.86924 3.58203 9.41634V18.583C3.58203 20.1301 4.19661 21.6138 5.29057 22.7078C6.38454 23.8018 7.86827 24.4163 9.41536 24.4163H18.582C20.1291 24.4163 21.6129 23.8018 22.7068 22.7078C23.8008 21.6138 24.4154 20.1301 24.4154 18.583C24.4154 18.583 24.4154 10.9634 24.4154 9.41634C24.4154 7.86924 23.8008 6.38551 22.7068 5.29155C21.6129 4.19759 20.1291 3.58301 18.582 3.58301Z" fill="#3480CC"/>
<path d="M12.8887 12.2915V18.9582" stroke="white" stroke-width="2" stroke-linecap="round" stroke-linejoin="round"/>
<path d="M9.55469 12.2915V18.9582" stroke="white" stroke-width="2" stroke-linecap="round" stroke-linejoin="round"/>
<path d="M9.55935 7.84717C10.173 7.84717 10.6705 8.34463 10.6705 8.95828C10.6705 9.5281 10.2415 9.99773 9.68893 10.0619L9.55935 10.0694C8.94082 10.0694 8.44336 9.57193 8.44336 8.95828C8.44336 8.38846 8.87229 7.91883 9.42489 7.85464L9.55935 7.84717Z" fill="white"/>
<path d="M12.8887 18.9582V15.6248C12.8887 13.7839 14.3811 12.2915 16.222 12.2915C18.063 12.2915 19.5553 13.7839 19.5553 15.6248V18.9582" stroke="white" stroke-width="2" stroke-linecap="round" stroke-linejoin="round"/>
</g>
<defs>
<clipPath id="clip0_436_914">
<rect width="26.6667" height="26.6667" fill="white" transform="translate(0.666016 0.666504)"/>
</clipPath>
</defs>
</svg>
