<svg width="259" height="48" viewBox="0 0 259 48" fill="none" xmlns="http://www.w3.org/2000/svg">
<path d="M51.68 40C51.4133 40 51.28 39.8667 51.28 39.6V12.4C51.28 12.1333 51.4133 12 51.68 12H54.72C54.9867 12 55.12 12.1333 55.12 12.4V36.52C55.12 36.6267 55.1733 36.68 55.28 36.68H69.08C69.3467 36.68 69.48 36.8133 69.48 37.08V39.6C69.48 39.8667 69.3467 40 69.08 40H51.68ZM90.0925 27.28C90.1992 28.3733 90.2392 29.6 90.2125 30.96C90.2125 31.2267 90.0792 31.36 89.8125 31.36H77.0525C76.9458 31.36 76.8925 31.4133 76.8925 31.52C76.8925 32.4267 76.9725 33.12 77.1325 33.6C77.4258 34.6667 78.0125 35.5067 78.8925 36.12C79.7992 36.7067 80.9325 37 82.2925 37C84.2658 37 85.7858 36.1867 86.8525 34.56C86.9858 34.2933 87.1592 34.2533 87.3725 34.44L89.6525 35.96C89.8392 36.12 89.8792 36.2933 89.7725 36.48C89.0258 37.68 87.9592 38.6267 86.5725 39.32C85.2125 40.0133 83.6658 40.36 81.9325 40.36C79.9858 40.36 78.3458 39.9333 77.0125 39.08C75.6792 38.2267 74.6792 37.0133 74.0125 35.44C73.3725 33.8667 73.0525 31.96 73.0525 29.72C73.0525 27.7733 73.1992 26.2933 73.4925 25.28C73.9725 23.44 74.9325 21.9867 76.3725 20.92C77.8125 19.8533 79.5592 19.32 81.6125 19.32C84.3058 19.32 86.3192 20 87.6525 21.36C88.9858 22.6933 89.7992 24.6667 90.0925 27.28ZM81.6125 22.64C80.4658 22.64 79.5192 22.9333 78.7725 23.52C78.0258 24.08 77.5192 24.84 77.2525 25.8C77.0658 26.3867 76.9458 27.1333 76.8925 28.04C76.8925 28.1467 76.9458 28.2 77.0525 28.2H86.2125C86.3192 28.2 86.3725 28.1467 86.3725 28.04C86.3192 27.16 86.2392 26.5067 86.1325 26.08C85.8658 25.04 85.3325 24.2133 84.5325 23.6C83.7592 22.96 82.7858 22.64 81.6125 22.64ZM102.303 19.32C103.929 19.32 105.343 19.6133 106.543 20.2C107.769 20.76 108.703 21.56 109.343 22.6C110.009 23.6133 110.343 24.7733 110.343 26.08V39.6C110.343 39.8667 110.209 40 109.943 40H106.903C106.636 40 106.503 39.8667 106.503 39.6V38.16C106.503 38.0267 106.436 38 106.303 38.08C105.609 38.8 104.756 39.36 103.743 39.76C102.756 40.1333 101.649 40.32 100.423 40.32C98.4492 40.32 96.8092 39.8267 95.5025 38.84C94.2225 37.8267 93.5825 36.3067 93.5825 34.28C93.5825 32.2 94.3025 30.5733 95.7425 29.4C97.2092 28.2 99.2492 27.6 101.863 27.6H106.343C106.449 27.6 106.503 27.5467 106.503 27.44V26.36C106.503 25.1867 106.156 24.28 105.463 23.64C104.796 22.9733 103.769 22.64 102.383 22.64C101.263 22.64 100.343 22.8667 99.6225 23.32C98.9292 23.7467 98.5025 24.3333 98.3425 25.08C98.2625 25.3467 98.1025 25.4667 97.8625 25.44L94.6225 25C94.3558 24.9467 94.2358 24.84 94.2625 24.68C94.4758 23.1067 95.3158 21.8267 96.7825 20.84C98.2492 19.8267 100.089 19.32 102.303 19.32ZM101.263 37.08C102.676 37.08 103.903 36.7067 104.943 35.96C105.983 35.2133 106.503 34.2667 106.503 33.12V30.76C106.503 30.6533 106.449 30.6 106.343 30.6H102.583C101.009 30.6 99.7558 30.9067 98.8225 31.52C97.8892 32.1333 97.4225 32.9867 97.4225 34.08C97.4225 35.0667 97.7692 35.8133 98.4625 36.32C99.1825 36.8267 100.116 37.08 101.263 37.08ZM124.447 19.44C125.3 19.44 126.073 19.6133 126.767 19.96C126.953 20.04 127.02 20.2 126.967 20.44L126.327 23.44C126.3 23.68 126.14 23.76 125.847 23.68C125.393 23.4933 124.86 23.4 124.247 23.4L123.687 23.44C122.433 23.4933 121.393 23.9333 120.567 24.76C119.767 25.56 119.367 26.6133 119.367 27.92V39.6C119.367 39.8667 119.233 40 118.967 40H115.927C115.66 40 115.527 39.8667 115.527 39.6V20.04C115.527 19.7733 115.66 19.64 115.927 19.64H118.967C119.233 19.64 119.367 19.7733 119.367 20.04V22.16C119.367 22.24 119.38 22.2933 119.407 22.32C119.46 22.32 119.5 22.2933 119.527 22.24C120.727 20.3733 122.367 19.44 124.447 19.44ZM139.45 19.36C141.637 19.36 143.37 20 144.65 21.28C145.93 22.5333 146.57 24.24 146.57 26.4V39.6C146.57 39.8667 146.437 40 146.17 40H143.13C142.864 40 142.73 39.8667 142.73 39.6V27.16C142.73 25.8267 142.344 24.7467 141.57 23.92C140.797 23.0933 139.77 22.68 138.49 22.68C137.237 22.68 136.21 23.0933 135.41 23.92C134.61 24.7467 134.21 25.8133 134.21 27.12V39.6C134.21 39.8667 134.077 40 133.81 40H130.77C130.504 40 130.37 39.8667 130.37 39.6V20.04C130.37 19.7733 130.504 19.64 130.77 19.64H133.81C134.077 19.64 134.21 19.7733 134.21 20.04V21.48C134.21 21.5333 134.224 21.5733 134.25 21.6C134.304 21.6267 134.344 21.6133 134.37 21.56C135.517 20.0933 137.21 19.36 139.45 19.36ZM161.09 40.32C158.077 40.32 155.69 39.64 153.93 38.28C152.197 36.92 151.33 35.1067 151.33 32.84V31.6C151.33 31.3333 151.463 31.2 151.73 31.2H153.69C153.957 31.2 154.09 31.3333 154.09 31.6V32.68C154.09 34.2267 154.73 35.48 156.01 36.44C157.29 37.3733 159.063 37.84 161.33 37.84C163.383 37.84 164.943 37.4133 166.01 36.56C167.077 35.68 167.61 34.52 167.61 33.08C167.61 32.1467 167.357 31.3467 166.85 30.68C166.37 30.0133 165.61 29.3867 164.57 28.8C163.557 28.2133 162.117 27.5333 160.25 26.76C158.25 25.96 156.69 25.2667 155.57 24.68C154.477 24.0667 153.583 23.2933 152.89 22.36C152.223 21.4 151.89 20.2 151.89 18.76C151.89 16.52 152.663 14.7867 154.21 13.56C155.783 12.3067 157.93 11.68 160.65 11.68C163.61 11.68 165.943 12.3733 167.65 13.76C169.357 15.1467 170.21 16.9867 170.21 19.28V20.16C170.21 20.4267 170.077 20.56 169.81 20.56H167.81C167.543 20.56 167.41 20.4267 167.41 20.16V19.44C167.41 17.8933 166.797 16.6267 165.57 15.64C164.37 14.6533 162.69 14.16 160.53 14.16C158.637 14.16 157.183 14.5467 156.17 15.32C155.157 16.0933 154.65 17.2133 154.65 18.68C154.65 19.64 154.89 20.44 155.37 21.08C155.877 21.6933 156.583 22.24 157.49 22.72C158.423 23.1733 159.85 23.7733 161.77 24.52C163.717 25.32 165.277 26.0667 166.45 26.76C167.65 27.4533 168.61 28.3067 169.33 29.32C170.077 30.3067 170.45 31.52 170.45 32.96C170.45 35.2 169.623 36.9867 167.97 38.32C166.317 39.6533 164.023 40.32 161.09 40.32ZM184.889 21.72C184.889 21.9867 184.756 22.12 184.489 22.12H179.969C179.863 22.12 179.809 22.1733 179.809 22.28V34.08C179.809 35.36 180.089 36.2667 180.649 36.8C181.236 37.3067 182.143 37.56 183.369 37.56H184.369C184.636 37.56 184.769 37.6933 184.769 37.96V39.6C184.769 39.8667 184.636 40 184.369 40C184.049 40.0267 183.556 40.04 182.889 40.04C180.969 40.04 179.516 39.68 178.529 38.96C177.543 38.24 177.049 36.9067 177.049 34.96V22.28C177.049 22.1733 176.996 22.12 176.889 22.12H174.449C174.183 22.12 174.049 21.9867 174.049 21.72V20.16C174.049 19.8933 174.183 19.76 174.449 19.76H176.889C176.996 19.76 177.049 19.7067 177.049 19.6V14.96C177.049 14.6933 177.183 14.56 177.449 14.56H179.409C179.676 14.56 179.809 14.6933 179.809 14.96V19.6C179.809 19.7067 179.863 19.76 179.969 19.76H184.489C184.756 19.76 184.889 19.8933 184.889 20.16V21.72ZM198.54 19.56C199.42 19.56 200.18 19.7333 200.82 20.08C201.033 20.1867 201.113 20.36 201.06 20.6L200.62 22.56C200.54 22.8267 200.366 22.9067 200.1 22.8C199.646 22.6133 199.126 22.52 198.54 22.52L198.02 22.56C196.633 22.6133 195.486 23.1333 194.58 24.12C193.673 25.08 193.22 26.3067 193.22 27.8V39.6C193.22 39.8667 193.086 40 192.82 40H190.78C190.513 40 190.38 39.8667 190.38 39.6V20.16C190.38 19.8933 190.513 19.76 190.78 19.76H192.82C193.086 19.76 193.22 19.8933 193.22 20.16V22.6C193.22 22.68 193.233 22.7333 193.26 22.76C193.313 22.76 193.353 22.7333 193.38 22.68C193.94 21.6933 194.646 20.9333 195.5 20.4C196.38 19.84 197.393 19.56 198.54 19.56ZM220.275 26.48C220.381 27.2267 220.435 28.16 220.435 29.28V30.56C220.435 30.8267 220.301 30.96 220.035 30.96H207.115C207.008 30.96 206.955 31.0133 206.955 31.12C207.008 32.5867 207.088 33.5333 207.195 33.96C207.488 35.16 208.115 36.1067 209.075 36.8C210.035 37.4933 211.261 37.84 212.755 37.84C213.875 37.84 214.861 37.5867 215.715 37.08C216.568 36.5733 217.235 35.8533 217.715 34.92C217.875 34.68 218.061 34.6267 218.275 34.76L219.835 35.68C220.048 35.8133 220.101 36 219.995 36.24C219.328 37.52 218.328 38.5333 216.995 39.28C215.661 40 214.128 40.36 212.395 40.36C210.501 40.3333 208.915 39.88 207.635 39C206.355 38.12 205.435 36.8933 204.875 35.32C204.395 34.04 204.155 32.2 204.155 29.8C204.155 28.68 204.168 27.7733 204.195 27.08C204.248 26.36 204.355 25.72 204.515 25.16C204.968 23.4267 205.875 22.04 207.235 21C208.621 19.96 210.288 19.44 212.235 19.44C214.661 19.44 216.528 20.0533 217.835 21.28C219.141 22.5067 219.955 24.24 220.275 26.48ZM212.235 21.92C210.928 21.92 209.835 22.2667 208.955 22.96C208.101 23.6267 207.541 24.5333 207.275 25.68C207.115 26.24 207.008 27.1467 206.955 28.4C206.955 28.5067 207.008 28.56 207.115 28.56H217.475C217.581 28.56 217.635 28.5067 217.635 28.4C217.581 27.2 217.501 26.3467 217.395 25.84C217.101 24.64 216.501 23.6933 215.595 23C214.715 22.28 213.595 21.92 212.235 21.92ZM241.603 26.48C241.709 27.2267 241.763 28.16 241.763 29.28V30.56C241.763 30.8267 241.629 30.96 241.363 30.96H228.443C228.336 30.96 228.283 31.0133 228.283 31.12C228.336 32.5867 228.416 33.5333 228.523 33.96C228.816 35.16 229.443 36.1067 230.403 36.8C231.363 37.4933 232.589 37.84 234.083 37.84C235.203 37.84 236.189 37.5867 237.043 37.08C237.896 36.5733 238.563 35.8533 239.043 34.92C239.203 34.68 239.389 34.6267 239.603 34.76L241.163 35.68C241.376 35.8133 241.429 36 241.323 36.24C240.656 37.52 239.656 38.5333 238.323 39.28C236.989 40 235.456 40.36 233.723 40.36C231.829 40.3333 230.243 39.88 228.963 39C227.683 38.12 226.763 36.8933 226.203 35.32C225.723 34.04 225.483 32.2 225.483 29.8C225.483 28.68 225.496 27.7733 225.523 27.08C225.576 26.36 225.683 25.72 225.843 25.16C226.296 23.4267 227.203 22.04 228.563 21C229.949 19.96 231.616 19.44 233.563 19.44C235.989 19.44 237.856 20.0533 239.163 21.28C240.469 22.5067 241.283 24.24 241.603 26.48ZM233.563 21.92C232.256 21.92 231.163 22.2667 230.283 22.96C229.429 23.6267 228.869 24.5333 228.603 25.68C228.443 26.24 228.336 27.1467 228.283 28.4C228.283 28.5067 228.336 28.56 228.443 28.56H238.803C238.909 28.56 238.963 28.5067 238.963 28.4C238.909 27.2 238.829 26.3467 238.723 25.84C238.429 24.64 237.829 23.6933 236.923 23C236.043 22.28 234.923 21.92 233.563 21.92ZM256.218 21.72C256.218 21.9867 256.084 22.12 255.818 22.12H251.298C251.191 22.12 251.138 22.1733 251.138 22.28V34.08C251.138 35.36 251.418 36.2667 251.978 36.8C252.564 37.3067 253.471 37.56 254.698 37.56H255.697C255.964 37.56 256.098 37.6933 256.098 37.96V39.6C256.098 39.8667 255.964 40 255.697 40C255.378 40.0267 254.884 40.04 254.217 40.04C252.298 40.04 250.844 39.68 249.858 38.96C248.871 38.24 248.378 36.9067 248.378 34.96V22.28C248.378 22.1733 248.324 22.12 248.218 22.12H245.778C245.511 22.12 245.378 21.9867 245.378 21.72V20.16C245.378 19.8933 245.511 19.76 245.778 19.76H248.218C248.324 19.76 248.378 19.7067 248.378 19.6V14.96C248.378 14.6933 248.511 14.56 248.778 14.56H250.738C251.004 14.56 251.138 14.6933 251.138 14.96V19.6C251.138 19.7067 251.191 19.76 251.298 19.76H255.818C256.084 19.76 256.218 19.8933 256.218 20.16V21.72Z" fill="white"/>
<path d="M20.306 5.25C12.9 5.25158 6.875 11.0789 6.875 18.2365C6.875 22.8838 8.7605 25.6472 10.1493 27.6845C11.0035 28.9373 11.4875 29.6824 11.4875 30.4337C11.4875 32.1183 12.3907 33.7064 13.9946 34.8959C14.0358 35.8956 14.1829 38.3332 14.1829 38.3332C14.1829 38.3347 14.1829 38.3347 14.1829 38.3363C14.2098 39.0292 14.5736 40.448 16.9605 41.2405C17.2421 41.6549 17.6106 42.0219 18.0583 42.3209C18.3137 42.4926 18.6113 42.5932 18.9186 42.6095L18.9188 42.6119H19.0073H19.2604H19.8752L19.6325 22.7483L11.5824 23.6068L11.5182 19.5022L19.5781 18.2928L19.5744 17.9971L14.52 17.0084L14.4574 13.6903L19.5375 14.9712L19.5014 12.0205C19.497 11.7389 21.0738 11.7138 21.0781 11.9954L21.1194 15.3701L23.9055 16.0725L23.9305 17.6399L29.2592 16.8403L29.0731 21.7415L21.2075 22.5803L21.4523 42.6119H21.6046H21.7673L21.7676 42.604C22.048 42.5769 22.3176 42.48 22.5537 42.3209C23.0014 42.0203 23.3715 41.6549 23.6515 41.2405C26.059 40.4401 26.4085 39.0038 26.4291 38.3316C26.4291 38.3316 26.5762 35.8956 26.6173 34.8959C28.2213 33.7064 29.1245 32.1183 29.1245 30.4337C29.1245 29.6824 29.6085 28.9373 30.469 27.6735C30.6363 27.4281 30.8113 27.1717 30.9893 26.9025C32.278 24.954 33.737 22.3234 33.737 18.2349C33.737 11.0757 27.7104 5.25 20.306 5.25Z" fill="white"/>
<path d="M15.2492 14.5564L23.5198 16.6921L23.5158 16.3959L14.8594 14.1797L14.9063 16.6703L15.2895 16.729L15.2492 14.5564Z" fill="white"/>
<path d="M12.7653 20.6371L28.6133 18.2602L28.6397 17.5312L12.1172 20.0096L12.1637 22.9503L12.8006 22.8818L12.7653 20.6371Z" fill="white"/>
</svg>
