<svg width="123" height="24" viewBox="0 0 123 24" fill="none" xmlns="http://www.w3.org/2000/svg">
<path d="M29.656 19C29.536 19 29.476 18.94 29.476 18.82V6.58C29.476 6.46 29.536 6.4 29.656 6.4H31.024C31.144 6.4 31.204 6.46 31.204 6.58V17.434C31.204 17.482 31.228 17.506 31.276 17.506H37.486C37.606 17.506 37.666 17.566 37.666 17.686V18.82C37.666 18.94 37.606 19 37.486 19H29.656ZM46.9416 13.276C46.9896 13.768 47.0076 14.32 46.9956 14.932C46.9956 15.052 46.9356 15.112 46.8156 15.112H41.0736C41.0256 15.112 41.0016 15.136 41.0016 15.184C41.0016 15.592 41.0376 15.904 41.1096 16.12C41.2416 16.6 41.5056 16.978 41.9016 17.254C42.3096 17.518 42.8196 17.65 43.4316 17.65C44.3196 17.65 45.0036 17.284 45.4836 16.552C45.5436 16.432 45.6216 16.414 45.7176 16.498L46.7436 17.182C46.8276 17.254 46.8456 17.332 46.7976 17.416C46.4616 17.956 45.9816 18.382 45.3576 18.694C44.7456 19.006 44.0496 19.162 43.2696 19.162C42.3936 19.162 41.6556 18.97 41.0556 18.586C40.4556 18.202 40.0056 17.656 39.7056 16.948C39.4176 16.24 39.2736 15.382 39.2736 14.374C39.2736 13.498 39.3396 12.832 39.4716 12.376C39.6876 11.548 40.1196 10.894 40.7676 10.414C41.4156 9.934 42.2016 9.694 43.1256 9.694C44.3376 9.694 45.2436 10 45.8436 10.612C46.4436 11.212 46.8096 12.1 46.9416 13.276ZM43.1256 11.188C42.6096 11.188 42.1836 11.32 41.8476 11.584C41.5116 11.836 41.2836 12.178 41.1636 12.61C41.0796 12.874 41.0256 13.21 41.0016 13.618C41.0016 13.666 41.0256 13.69 41.0736 13.69H45.1956C45.2436 13.69 45.2676 13.666 45.2676 13.618C45.2436 13.222 45.2076 12.928 45.1596 12.736C45.0396 12.268 44.7996 11.896 44.4396 11.62C44.0916 11.332 43.6536 11.188 43.1256 11.188ZM52.4361 9.694C53.1681 9.694 53.8041 9.826 54.3441 10.09C54.8961 10.342 55.3161 10.702 55.6041 11.17C55.9041 11.626 56.0541 12.148 56.0541 12.736V18.82C56.0541 18.94 55.9941 19 55.8741 19H54.5061C54.3861 19 54.3261 18.94 54.3261 18.82V18.172C54.3261 18.112 54.2961 18.1 54.2361 18.136C53.9241 18.46 53.5401 18.712 53.0841 18.892C52.6401 19.06 52.1421 19.144 51.5901 19.144C50.7021 19.144 49.9641 18.922 49.3761 18.478C48.8001 18.022 48.5121 17.338 48.5121 16.426C48.5121 15.49 48.8361 14.758 49.4841 14.23C50.1441 13.69 51.0621 13.42 52.2381 13.42H54.2541C54.3021 13.42 54.3261 13.396 54.3261 13.348V12.862C54.3261 12.334 54.1701 11.926 53.8581 11.638C53.5581 11.338 53.0961 11.188 52.4721 11.188C51.9681 11.188 51.5541 11.29 51.2301 11.494C50.9181 11.686 50.7261 11.95 50.6541 12.286C50.6181 12.406 50.5461 12.46 50.4381 12.448L48.9801 12.25C48.8601 12.226 48.8061 12.178 48.8181 12.106C48.9141 11.398 49.2921 10.822 49.9521 10.378C50.6121 9.922 51.4401 9.694 52.4361 9.694ZM51.9681 17.686C52.6041 17.686 53.1561 17.518 53.6241 17.182C54.0921 16.846 54.3261 16.42 54.3261 15.904V14.842C54.3261 14.794 54.3021 14.77 54.2541 14.77H52.5621C51.8541 14.77 51.2901 14.908 50.8701 15.184C50.4501 15.46 50.2401 15.844 50.2401 16.336C50.2401 16.78 50.3961 17.116 50.7081 17.344C51.0321 17.572 51.4521 17.686 51.9681 17.686ZM62.401 9.748C62.785 9.748 63.133 9.826 63.445 9.982C63.529 10.018 63.559 10.09 63.535 10.198L63.247 11.548C63.235 11.656 63.163 11.692 63.031 11.656C62.827 11.572 62.587 11.53 62.311 11.53L62.059 11.548C61.495 11.572 61.027 11.77 60.655 12.142C60.295 12.502 60.115 12.976 60.115 13.564V18.82C60.115 18.94 60.055 19 59.935 19H58.567C58.447 19 58.387 18.94 58.387 18.82V10.018C58.387 9.898 58.447 9.838 58.567 9.838H59.935C60.055 9.838 60.115 9.898 60.115 10.018V10.972C60.115 11.008 60.121 11.032 60.133 11.044C60.157 11.044 60.175 11.032 60.187 11.008C60.727 10.168 61.465 9.748 62.401 9.748ZM69.1526 9.712C70.1366 9.712 70.9166 10 71.4926 10.576C72.0686 11.14 72.3566 11.908 72.3566 12.88V18.82C72.3566 18.94 72.2966 19 72.1766 19H70.8086C70.6886 19 70.6286 18.94 70.6286 18.82V13.222C70.6286 12.622 70.4546 12.136 70.1066 11.764C69.7586 11.392 69.2966 11.206 68.7206 11.206C68.1566 11.206 67.6946 11.392 67.3346 11.764C66.9746 12.136 66.7946 12.616 66.7946 13.204V18.82C66.7946 18.94 66.7346 19 66.6146 19H65.2466C65.1266 19 65.0666 18.94 65.0666 18.82V10.018C65.0666 9.898 65.1266 9.838 65.2466 9.838H66.6146C66.7346 9.838 66.7946 9.898 66.7946 10.018V10.666C66.7946 10.69 66.8006 10.708 66.8126 10.72C66.8366 10.732 66.8546 10.726 66.8666 10.702C67.3826 10.042 68.1446 9.712 69.1526 9.712ZM78.8905 19.144C77.5345 19.144 76.4605 18.838 75.6685 18.226C74.8885 17.614 74.4985 16.798 74.4985 15.778V15.22C74.4985 15.1 74.5585 15.04 74.6785 15.04H75.5605C75.6805 15.04 75.7405 15.1 75.7405 15.22V15.706C75.7405 16.402 76.0285 16.966 76.6045 17.398C77.1805 17.818 77.9785 18.028 78.9985 18.028C79.9225 18.028 80.6245 17.836 81.1045 17.452C81.5845 17.056 81.8245 16.534 81.8245 15.886C81.8245 15.466 81.7105 15.106 81.4825 14.806C81.2665 14.506 80.9245 14.224 80.4565 13.96C80.0005 13.696 79.3525 13.39 78.5125 13.042C77.6125 12.682 76.9105 12.37 76.4065 12.106C75.9145 11.83 75.5125 11.482 75.2005 11.062C74.9005 10.63 74.7505 10.09 74.7505 9.442C74.7505 8.434 75.0985 7.654 75.7945 7.102C76.5025 6.538 77.4685 6.256 78.6925 6.256C80.0245 6.256 81.0745 6.568 81.8425 7.192C82.6105 7.816 82.9945 8.644 82.9945 9.676V10.072C82.9945 10.192 82.9345 10.252 82.8145 10.252H81.9145C81.7945 10.252 81.7345 10.192 81.7345 10.072V9.748C81.7345 9.052 81.4585 8.482 80.9065 8.038C80.3665 7.594 79.6105 7.372 78.6385 7.372C77.7865 7.372 77.1325 7.546 76.6765 7.894C76.2205 8.242 75.9925 8.746 75.9925 9.406C75.9925 9.838 76.1005 10.198 76.3165 10.486C76.5445 10.762 76.8625 11.008 77.2705 11.224C77.6905 11.428 78.3325 11.698 79.1965 12.034C80.0725 12.394 80.7745 12.73 81.3025 13.042C81.8425 13.354 82.2745 13.738 82.5985 14.194C82.9345 14.638 83.1025 15.184 83.1025 15.832C83.1025 16.84 82.7305 17.644 81.9865 18.244C81.2425 18.844 80.2105 19.144 78.8905 19.144ZM89.6002 10.774C89.6002 10.894 89.5402 10.954 89.4202 10.954H87.3862C87.3382 10.954 87.3142 10.978 87.3142 11.026V16.336C87.3142 16.912 87.4402 17.32 87.6922 17.56C87.9562 17.788 88.3642 17.902 88.9162 17.902H89.3662C89.4862 17.902 89.5462 17.962 89.5462 18.082V18.82C89.5462 18.94 89.4862 19 89.3662 19C89.2222 19.012 89.0002 19.018 88.7002 19.018C87.8362 19.018 87.1822 18.856 86.7382 18.532C86.2942 18.208 86.0722 17.608 86.0722 16.732V11.026C86.0722 10.978 86.0482 10.954 86.0002 10.954H84.9022C84.7822 10.954 84.7222 10.894 84.7222 10.774V10.072C84.7222 9.952 84.7822 9.892 84.9022 9.892H86.0002C86.0482 9.892 86.0722 9.868 86.0722 9.82V7.732C86.0722 7.612 86.1322 7.552 86.2522 7.552H87.1342C87.2542 7.552 87.3142 7.612 87.3142 7.732V9.82C87.3142 9.868 87.3382 9.892 87.3862 9.892H89.4202C89.5402 9.892 89.6002 9.952 89.6002 10.072V10.774ZM95.7429 9.802C96.1389 9.802 96.4809 9.88 96.7689 10.036C96.8649 10.084 96.9009 10.162 96.8769 10.27L96.6789 11.152C96.6429 11.272 96.5649 11.308 96.4449 11.26C96.2409 11.176 96.0069 11.134 95.7429 11.134L95.5089 11.152C94.8849 11.176 94.3689 11.41 93.9609 11.854C93.5529 12.286 93.3489 12.838 93.3489 13.51V18.82C93.3489 18.94 93.2889 19 93.1689 19H92.2509C92.1309 19 92.0709 18.94 92.0709 18.82V10.072C92.0709 9.952 92.1309 9.892 92.2509 9.892H93.1689C93.2889 9.892 93.3489 9.952 93.3489 10.072V11.17C93.3489 11.206 93.3549 11.23 93.3669 11.242C93.3909 11.242 93.4089 11.23 93.4209 11.206C93.6729 10.762 93.9909 10.42 94.3749 10.18C94.7709 9.928 95.2269 9.802 95.7429 9.802ZM105.524 12.916C105.572 13.252 105.596 13.672 105.596 14.176V14.752C105.596 14.872 105.536 14.932 105.416 14.932H99.6016C99.5536 14.932 99.5296 14.956 99.5296 15.004C99.5536 15.664 99.5896 16.09 99.6376 16.282C99.7696 16.822 100.052 17.248 100.484 17.56C100.916 17.872 101.468 18.028 102.14 18.028C102.644 18.028 103.088 17.914 103.472 17.686C103.856 17.458 104.156 17.134 104.372 16.714C104.444 16.606 104.528 16.582 104.624 16.642L105.326 17.056C105.422 17.116 105.446 17.2 105.398 17.308C105.098 17.884 104.648 18.34 104.048 18.676C103.448 19 102.758 19.162 101.978 19.162C101.126 19.15 100.412 18.946 99.8356 18.55C99.2596 18.154 98.8456 17.602 98.5936 16.894C98.3776 16.318 98.2696 15.49 98.2696 14.41C98.2696 13.906 98.2756 13.498 98.2876 13.186C98.3116 12.862 98.3596 12.574 98.4316 12.322C98.6356 11.542 99.0436 10.918 99.6556 10.45C100.28 9.982 101.03 9.748 101.906 9.748C102.998 9.748 103.838 10.024 104.426 10.576C105.014 11.128 105.38 11.908 105.524 12.916ZM101.906 10.864C101.318 10.864 100.826 11.02 100.43 11.332C100.046 11.632 99.7936 12.04 99.6736 12.556C99.6016 12.808 99.5536 13.216 99.5296 13.78C99.5296 13.828 99.5536 13.852 99.6016 13.852H104.264C104.312 13.852 104.336 13.828 104.336 13.78C104.312 13.24 104.276 12.856 104.228 12.628C104.096 12.088 103.826 11.662 103.418 11.35C103.022 11.026 102.518 10.864 101.906 10.864ZM115.121 12.916C115.169 13.252 115.193 13.672 115.193 14.176V14.752C115.193 14.872 115.133 14.932 115.013 14.932H109.199C109.151 14.932 109.127 14.956 109.127 15.004C109.151 15.664 109.187 16.09 109.235 16.282C109.367 16.822 109.649 17.248 110.081 17.56C110.513 17.872 111.065 18.028 111.737 18.028C112.241 18.028 112.685 17.914 113.069 17.686C113.453 17.458 113.753 17.134 113.969 16.714C114.041 16.606 114.125 16.582 114.221 16.642L114.923 17.056C115.019 17.116 115.043 17.2 114.995 17.308C114.695 17.884 114.245 18.34 113.645 18.676C113.045 19 112.355 19.162 111.575 19.162C110.723 19.15 110.009 18.946 109.433 18.55C108.857 18.154 108.443 17.602 108.191 16.894C107.975 16.318 107.867 15.49 107.867 14.41C107.867 13.906 107.873 13.498 107.885 13.186C107.909 12.862 107.957 12.574 108.029 12.322C108.233 11.542 108.641 10.918 109.253 10.45C109.877 9.982 110.627 9.748 111.503 9.748C112.595 9.748 113.435 10.024 114.023 10.576C114.611 11.128 114.977 11.908 115.121 12.916ZM111.503 10.864C110.915 10.864 110.423 11.02 110.027 11.332C109.643 11.632 109.391 12.04 109.271 12.556C109.199 12.808 109.151 13.216 109.127 13.78C109.127 13.828 109.151 13.852 109.199 13.852H113.861C113.909 13.852 113.933 13.828 113.933 13.78C113.909 13.24 113.873 12.856 113.825 12.628C113.693 12.088 113.423 11.662 113.015 11.35C112.619 11.026 112.115 10.864 111.503 10.864ZM121.698 10.774C121.698 10.894 121.638 10.954 121.518 10.954H119.484C119.436 10.954 119.412 10.978 119.412 11.026V16.336C119.412 16.912 119.538 17.32 119.79 17.56C120.054 17.788 120.462 17.902 121.014 17.902H121.464C121.584 17.902 121.644 17.962 121.644 18.082V18.82C121.644 18.94 121.584 19 121.464 19C121.32 19.012 121.098 19.018 120.798 19.018C119.934 19.018 119.28 18.856 118.836 18.532C118.392 18.208 118.17 17.608 118.17 16.732V11.026C118.17 10.978 118.146 10.954 118.098 10.954H117C116.88 10.954 116.82 10.894 116.82 10.774V10.072C116.82 9.952 116.88 9.892 117 9.892H118.098C118.146 9.892 118.17 9.868 118.17 9.82V7.732C118.17 7.612 118.23 7.552 118.35 7.552H119.232C119.352 7.552 119.412 7.612 119.412 7.732V9.82C119.412 9.868 119.436 9.892 119.484 9.892H121.518C121.638 9.892 121.698 9.952 121.698 10.072V10.774Z" fill="#4F39A5"/>
<path d="M12.1833 0.746094C7.73978 0.747043 4.12476 4.24343 4.12476 8.538C4.12476 11.3264 5.25605 12.9844 6.08934 14.2068C6.60184 14.9585 6.89226 15.4055 6.89226 15.8563C6.89226 16.8671 7.43418 17.8199 8.39654 18.5337C8.42122 19.1335 8.50948 20.596 8.50948 20.596C8.50948 20.5969 8.50948 20.5969 8.50948 20.5979C8.52562 21.0136 8.7439 21.8649 10.1761 22.3404C10.345 22.589 10.5661 22.8092 10.8347 22.9886C10.988 23.0917 11.1665 23.152 11.3509 23.1618L11.3511 23.1632H11.4042H11.556H11.9249L11.7793 11.2451L6.9492 11.7602L6.91065 9.29739L11.7466 8.5718L11.7444 8.39433L8.71177 7.80115L8.67417 5.81027L11.7222 6.57879L11.7006 4.8084C11.698 4.63942 12.644 4.62437 12.6466 4.79335L12.6714 6.81814L14.343 7.23962L14.358 8.18001L17.5553 7.70028L17.4436 10.641L12.7243 11.1443L12.8712 23.1632H12.9625H13.0601L13.0603 23.1585C13.2286 23.1422 13.3903 23.0841 13.532 22.9886C13.8006 22.8083 14.0227 22.589 14.1906 22.3404C15.6351 21.8602 15.8449 20.9984 15.8572 20.595C15.8572 20.595 15.9455 19.1335 15.9702 18.5337C16.9325 17.8199 17.4744 16.8671 17.4744 15.8563C17.4744 15.4055 17.7649 14.9585 18.2812 14.2002C18.3815 14.053 18.4865 13.8991 18.5934 13.7376C19.3666 12.5685 20.2419 10.9901 20.2419 8.53705C20.2419 4.24154 16.626 0.746094 12.1833 0.746094Z" fill="#4C3CA2"/>
<path d="M9.14977 6.32758L14.1121 7.60901L14.1098 7.43131L8.91589 6.10156L8.94405 7.59595L9.17395 7.63116L9.14977 6.32758Z" fill="#4C3CA2"/>
<path d="M7.6594 9.98067L17.1682 8.55453L17.184 8.11719L7.27051 9.60421L7.29839 11.3686L7.68055 11.3275L7.6594 9.98067Z" fill="#4C3CA2"/>
</svg>
