<svg width="283" height="56" viewBox="0 0 283 56" fill="none" xmlns="http://www.w3.org/2000/svg">
<path d="M75.68 44C75.4133 44 75.28 43.8667 75.28 43.6V16.4C75.28 16.1333 75.4133 16 75.68 16H78.72C78.9867 16 79.12 16.1333 79.12 16.4V40.52C79.12 40.6267 79.1733 40.68 79.28 40.68H93.08C93.3467 40.68 93.48 40.8133 93.48 41.08V43.6C93.48 43.8667 93.3467 44 93.08 44H75.68ZM114.093 31.28C114.199 32.3733 114.239 33.6 114.213 34.96C114.213 35.2267 114.079 35.36 113.813 35.36H101.053C100.946 35.36 100.893 35.4133 100.893 35.52C100.893 36.4267 100.973 37.12 101.133 37.6C101.426 38.6667 102.013 39.5067 102.893 40.12C103.799 40.7067 104.933 41 106.293 41C108.266 41 109.786 40.1867 110.853 38.56C110.986 38.2933 111.159 38.2533 111.373 38.44L113.653 39.96C113.839 40.12 113.879 40.2933 113.773 40.48C113.026 41.68 111.959 42.6267 110.573 43.32C109.213 44.0133 107.666 44.36 105.933 44.36C103.986 44.36 102.346 43.9333 101.013 43.08C99.6792 42.2267 98.6792 41.0133 98.0125 39.44C97.3725 37.8667 97.0525 35.96 97.0525 33.72C97.0525 31.7733 97.1992 30.2933 97.4925 29.28C97.9725 27.44 98.9325 25.9867 100.373 24.92C101.813 23.8533 103.559 23.32 105.613 23.32C108.306 23.32 110.319 24 111.653 25.36C112.986 26.6933 113.799 28.6667 114.093 31.28ZM105.613 26.64C104.466 26.64 103.519 26.9333 102.773 27.52C102.026 28.08 101.519 28.84 101.253 29.8C101.066 30.3867 100.946 31.1333 100.893 32.04C100.893 32.1467 100.946 32.2 101.053 32.2H110.213C110.319 32.2 110.373 32.1467 110.373 32.04C110.319 31.16 110.239 30.5067 110.133 30.08C109.866 29.04 109.333 28.2133 108.533 27.6C107.759 26.96 106.786 26.64 105.613 26.64ZM126.303 23.32C127.929 23.32 129.343 23.6133 130.543 24.2C131.769 24.76 132.703 25.56 133.343 26.6C134.009 27.6133 134.343 28.7733 134.343 30.08V43.6C134.343 43.8667 134.209 44 133.943 44H130.903C130.636 44 130.503 43.8667 130.503 43.6V42.16C130.503 42.0267 130.436 42 130.303 42.08C129.609 42.8 128.756 43.36 127.743 43.76C126.756 44.1333 125.649 44.32 124.423 44.32C122.449 44.32 120.809 43.8267 119.503 42.84C118.223 41.8267 117.583 40.3067 117.583 38.28C117.583 36.2 118.303 34.5733 119.743 33.4C121.209 32.2 123.249 31.6 125.863 31.6H130.343C130.449 31.6 130.503 31.5467 130.503 31.44V30.36C130.503 29.1867 130.156 28.28 129.463 27.64C128.796 26.9733 127.769 26.64 126.383 26.64C125.263 26.64 124.343 26.8667 123.623 27.32C122.929 27.7467 122.503 28.3333 122.343 29.08C122.263 29.3467 122.103 29.4667 121.863 29.44L118.623 29C118.356 28.9467 118.236 28.84 118.263 28.68C118.476 27.1067 119.316 25.8267 120.783 24.84C122.249 23.8267 124.089 23.32 126.303 23.32ZM125.263 41.08C126.676 41.08 127.903 40.7067 128.943 39.96C129.983 39.2133 130.503 38.2667 130.503 37.12V34.76C130.503 34.6533 130.449 34.6 130.343 34.6H126.583C125.009 34.6 123.756 34.9067 122.823 35.52C121.889 36.1333 121.423 36.9867 121.423 38.08C121.423 39.0667 121.769 39.8133 122.463 40.32C123.183 40.8267 124.116 41.08 125.263 41.08ZM148.447 23.44C149.3 23.44 150.073 23.6133 150.767 23.96C150.953 24.04 151.02 24.2 150.967 24.44L150.327 27.44C150.3 27.68 150.14 27.76 149.847 27.68C149.393 27.4933 148.86 27.4 148.247 27.4L147.687 27.44C146.433 27.4933 145.393 27.9333 144.567 28.76C143.767 29.56 143.367 30.6133 143.367 31.92V43.6C143.367 43.8667 143.233 44 142.967 44H139.927C139.66 44 139.527 43.8667 139.527 43.6V24.04C139.527 23.7733 139.66 23.64 139.927 23.64H142.967C143.233 23.64 143.367 23.7733 143.367 24.04V26.16C143.367 26.24 143.38 26.2933 143.407 26.32C143.46 26.32 143.5 26.2933 143.527 26.24C144.727 24.3733 146.367 23.44 148.447 23.44ZM163.45 23.36C165.637 23.36 167.37 24 168.65 25.28C169.93 26.5333 170.57 28.24 170.57 30.4V43.6C170.57 43.8667 170.437 44 170.17 44H167.13C166.864 44 166.73 43.8667 166.73 43.6V31.16C166.73 29.8267 166.344 28.7467 165.57 27.92C164.797 27.0933 163.77 26.68 162.49 26.68C161.237 26.68 160.21 27.0933 159.41 27.92C158.61 28.7467 158.21 29.8133 158.21 31.12V43.6C158.21 43.8667 158.077 44 157.81 44H154.77C154.504 44 154.37 43.8667 154.37 43.6V24.04C154.37 23.7733 154.504 23.64 154.77 23.64H157.81C158.077 23.64 158.21 23.7733 158.21 24.04V25.48C158.21 25.5333 158.224 25.5733 158.25 25.6C158.304 25.6267 158.344 25.6133 158.37 25.56C159.517 24.0933 161.21 23.36 163.45 23.36ZM185.09 44.32C182.077 44.32 179.69 43.64 177.93 42.28C176.197 40.92 175.33 39.1067 175.33 36.84V35.6C175.33 35.3333 175.463 35.2 175.73 35.2H177.69C177.957 35.2 178.09 35.3333 178.09 35.6V36.68C178.09 38.2267 178.73 39.48 180.01 40.44C181.29 41.3733 183.063 41.84 185.33 41.84C187.383 41.84 188.943 41.4133 190.01 40.56C191.077 39.68 191.61 38.52 191.61 37.08C191.61 36.1467 191.357 35.3467 190.85 34.68C190.37 34.0133 189.61 33.3867 188.57 32.8C187.557 32.2133 186.117 31.5333 184.25 30.76C182.25 29.96 180.69 29.2667 179.57 28.68C178.477 28.0667 177.583 27.2933 176.89 26.36C176.223 25.4 175.89 24.2 175.89 22.76C175.89 20.52 176.663 18.7867 178.21 17.56C179.783 16.3067 181.93 15.68 184.65 15.68C187.61 15.68 189.943 16.3733 191.65 17.76C193.357 19.1467 194.21 20.9867 194.21 23.28V24.16C194.21 24.4267 194.077 24.56 193.81 24.56H191.81C191.543 24.56 191.41 24.4267 191.41 24.16V23.44C191.41 21.8933 190.797 20.6267 189.57 19.64C188.37 18.6533 186.69 18.16 184.53 18.16C182.637 18.16 181.183 18.5467 180.17 19.32C179.157 20.0933 178.65 21.2133 178.65 22.68C178.65 23.64 178.89 24.44 179.37 25.08C179.877 25.6933 180.583 26.24 181.49 26.72C182.423 27.1733 183.85 27.7733 185.77 28.52C187.717 29.32 189.277 30.0667 190.45 30.76C191.65 31.4533 192.61 32.3067 193.33 33.32C194.077 34.3067 194.45 35.52 194.45 36.96C194.45 39.2 193.623 40.9867 191.97 42.32C190.317 43.6533 188.023 44.32 185.09 44.32ZM208.889 25.72C208.889 25.9867 208.756 26.12 208.489 26.12H203.969C203.863 26.12 203.809 26.1733 203.809 26.28V38.08C203.809 39.36 204.089 40.2667 204.649 40.8C205.236 41.3067 206.143 41.56 207.369 41.56H208.369C208.636 41.56 208.769 41.6933 208.769 41.96V43.6C208.769 43.8667 208.636 44 208.369 44C208.049 44.0267 207.556 44.04 206.889 44.04C204.969 44.04 203.516 43.68 202.529 42.96C201.543 42.24 201.049 40.9067 201.049 38.96V26.28C201.049 26.1733 200.996 26.12 200.889 26.12H198.449C198.183 26.12 198.049 25.9867 198.049 25.72V24.16C198.049 23.8933 198.183 23.76 198.449 23.76H200.889C200.996 23.76 201.049 23.7067 201.049 23.6V18.96C201.049 18.6933 201.183 18.56 201.449 18.56H203.409C203.676 18.56 203.809 18.6933 203.809 18.96V23.6C203.809 23.7067 203.863 23.76 203.969 23.76H208.489C208.756 23.76 208.889 23.8933 208.889 24.16V25.72ZM222.54 23.56C223.42 23.56 224.18 23.7333 224.82 24.08C225.033 24.1867 225.113 24.36 225.06 24.6L224.62 26.56C224.54 26.8267 224.366 26.9067 224.1 26.8C223.646 26.6133 223.126 26.52 222.54 26.52L222.02 26.56C220.633 26.6133 219.486 27.1333 218.58 28.12C217.673 29.08 217.22 30.3067 217.22 31.8V43.6C217.22 43.8667 217.086 44 216.82 44H214.78C214.513 44 214.38 43.8667 214.38 43.6V24.16C214.38 23.8933 214.513 23.76 214.78 23.76H216.82C217.086 23.76 217.22 23.8933 217.22 24.16V26.6C217.22 26.68 217.233 26.7333 217.26 26.76C217.313 26.76 217.353 26.7333 217.38 26.68C217.94 25.6933 218.646 24.9333 219.5 24.4C220.38 23.84 221.393 23.56 222.54 23.56ZM244.275 30.48C244.381 31.2267 244.435 32.16 244.435 33.28V34.56C244.435 34.8267 244.301 34.96 244.035 34.96H231.115C231.008 34.96 230.955 35.0133 230.955 35.12C231.008 36.5867 231.088 37.5333 231.195 37.96C231.488 39.16 232.115 40.1067 233.075 40.8C234.035 41.4933 235.261 41.84 236.755 41.84C237.875 41.84 238.861 41.5867 239.715 41.08C240.568 40.5733 241.235 39.8533 241.715 38.92C241.875 38.68 242.061 38.6267 242.275 38.76L243.835 39.68C244.048 39.8133 244.101 40 243.995 40.24C243.328 41.52 242.328 42.5333 240.995 43.28C239.661 44 238.128 44.36 236.395 44.36C234.501 44.3333 232.915 43.88 231.635 43C230.355 42.12 229.435 40.8933 228.875 39.32C228.395 38.04 228.155 36.2 228.155 33.8C228.155 32.68 228.168 31.7733 228.195 31.08C228.248 30.36 228.355 29.72 228.515 29.16C228.968 27.4267 229.875 26.04 231.235 25C232.621 23.96 234.288 23.44 236.235 23.44C238.661 23.44 240.528 24.0533 241.835 25.28C243.141 26.5067 243.955 28.24 244.275 30.48ZM236.235 25.92C234.928 25.92 233.835 26.2667 232.955 26.96C232.101 27.6267 231.541 28.5333 231.275 29.68C231.115 30.24 231.008 31.1467 230.955 32.4C230.955 32.5067 231.008 32.56 231.115 32.56H241.475C241.581 32.56 241.635 32.5067 241.635 32.4C241.581 31.2 241.501 30.3467 241.395 29.84C241.101 28.64 240.501 27.6933 239.595 27C238.715 26.28 237.595 25.92 236.235 25.92ZM265.603 30.48C265.709 31.2267 265.763 32.16 265.763 33.28V34.56C265.763 34.8267 265.629 34.96 265.363 34.96H252.443C252.336 34.96 252.283 35.0133 252.283 35.12C252.336 36.5867 252.416 37.5333 252.523 37.96C252.816 39.16 253.443 40.1067 254.403 40.8C255.363 41.4933 256.589 41.84 258.083 41.84C259.203 41.84 260.189 41.5867 261.043 41.08C261.896 40.5733 262.563 39.8533 263.043 38.92C263.203 38.68 263.389 38.6267 263.603 38.76L265.163 39.68C265.376 39.8133 265.429 40 265.323 40.24C264.656 41.52 263.656 42.5333 262.323 43.28C260.989 44 259.456 44.36 257.723 44.36C255.829 44.3333 254.243 43.88 252.963 43C251.683 42.12 250.763 40.8933 250.203 39.32C249.723 38.04 249.483 36.2 249.483 33.8C249.483 32.68 249.496 31.7733 249.523 31.08C249.576 30.36 249.683 29.72 249.843 29.16C250.296 27.4267 251.203 26.04 252.563 25C253.949 23.96 255.616 23.44 257.563 23.44C259.989 23.44 261.856 24.0533 263.163 25.28C264.469 26.5067 265.283 28.24 265.603 30.48ZM257.563 25.92C256.256 25.92 255.163 26.2667 254.283 26.96C253.429 27.6267 252.869 28.5333 252.603 29.68C252.443 30.24 252.336 31.1467 252.283 32.4C252.283 32.5067 252.336 32.56 252.443 32.56H262.803C262.909 32.56 262.963 32.5067 262.963 32.4C262.909 31.2 262.829 30.3467 262.723 29.84C262.429 28.64 261.829 27.6933 260.923 27C260.043 26.28 258.923 25.92 257.563 25.92ZM280.218 25.72C280.218 25.9867 280.084 26.12 279.818 26.12H275.298C275.191 26.12 275.138 26.1733 275.138 26.28V38.08C275.138 39.36 275.418 40.2667 275.978 40.8C276.564 41.3067 277.471 41.56 278.698 41.56H279.697C279.964 41.56 280.098 41.6933 280.098 41.96V43.6C280.098 43.8667 279.964 44 279.697 44C279.378 44.0267 278.884 44.04 278.217 44.04C276.298 44.04 274.844 43.68 273.858 42.96C272.871 42.24 272.378 40.9067 272.378 38.96V26.28C272.378 26.1733 272.324 26.12 272.218 26.12H269.778C269.511 26.12 269.378 25.9867 269.378 25.72V24.16C269.378 23.8933 269.511 23.76 269.778 23.76H272.218C272.324 23.76 272.378 23.7067 272.378 23.6V18.96C272.378 18.6933 272.511 18.56 272.778 18.56H274.738C275.004 18.56 275.138 18.6933 275.138 18.96V23.6C275.138 23.7067 275.191 23.76 275.298 23.76H279.818C280.084 23.76 280.218 23.8933 280.218 24.16V25.72Z" fill="#4F39A5"/>
<path d="M28.4284 1.75C18.0601 1.75221 9.625 9.91046 9.625 19.9311C9.625 26.4373 12.2647 30.3061 14.209 33.1584C15.4049 34.9123 16.0825 35.9553 16.0825 37.0072C16.0825 39.3656 17.347 41.589 19.5925 43.2543C19.6501 44.6539 19.856 48.0664 19.856 48.0664C19.856 48.0686 19.856 48.0686 19.856 48.0709C19.8937 49.0408 20.403 51.0272 23.7447 52.1367C24.1389 52.7169 24.6549 53.2307 25.2816 53.6492C25.6392 53.8896 26.0558 54.0304 26.4861 54.0533L26.4864 54.0567H26.6103H26.9646H27.8253L27.4855 26.2476L16.2154 27.4495L16.1254 21.703L27.4093 20.01L27.4042 19.5959L20.328 18.2118L20.2403 13.5664L27.3525 15.3596L27.3019 11.2287C27.2958 10.8344 29.5033 10.7993 29.5094 11.1936L29.5672 15.9181L33.4677 16.9016L33.5027 19.0958L40.9629 17.9764L40.7023 24.8381L29.6905 26.0125L30.0333 54.0567H30.2465H30.4742L30.4746 54.0456C30.8672 54.0076 31.2446 53.872 31.5752 53.6492C32.2019 53.2284 32.7201 52.7169 33.1121 52.1367C36.4825 51.0162 36.972 49.0054 37.0007 48.0642C37.0007 48.0642 37.2067 44.6539 37.2643 43.2543C39.5098 41.589 40.7743 39.3656 40.7743 37.0072C40.7743 35.9553 41.4519 34.9123 42.6566 33.1429C42.8908 32.7994 43.1358 32.4404 43.3851 32.0634C45.1893 29.3356 47.2318 25.6528 47.2318 19.9289C47.2318 9.90603 38.7945 1.75 28.4284 1.75Z" fill="#4C3CA2"/>
<path d="M21.3504 14.7764L32.9292 17.7664L32.9237 17.3518L20.8047 14.249L20.8704 17.7359L21.4068 17.8181L21.3504 14.7764Z" fill="#4C3CA2"/>
<path d="M17.8723 23.292L40.0594 19.9643L40.0963 18.9438L16.9648 22.4136L17.0299 26.5305L17.9216 26.4346L17.8723 23.292Z" fill="#4C3CA2"/>
</svg>
