<svg width="20" height="20" viewBox="0 0 20 20" fill="none" xmlns="http://www.w3.org/2000/svg">
<path d="M13.3337 18.9582H2.50033C1.70033 18.9582 1.04199 18.2998 1.04199 17.4998V6.6665C1.04199 2.98317 2.98366 1.0415 6.66699 1.0415H13.3337C17.017 1.0415 18.9587 2.98317 18.9587 6.6665V13.3332C18.9587 17.0165 17.017 18.9582 13.3337 18.9582ZM6.66699 2.2915C3.68366 2.2915 2.29199 3.68317 2.29199 6.6665V17.4998C2.29199 17.6165 2.38366 17.7082 2.50033 17.7082H13.3337C16.317 17.7082 17.7087 16.3165 17.7087 13.3332V6.6665C17.7087 3.68317 16.317 2.2915 13.3337 2.2915H6.66699Z" fill="#6F5EB6"/>
<path d="M14.1663 8.5415H5.83301C5.49134 8.5415 5.20801 8.25817 5.20801 7.9165C5.20801 7.57484 5.49134 7.2915 5.83301 7.2915H14.1663C14.508 7.2915 14.7913 7.57484 14.7913 7.9165C14.7913 8.25817 14.508 8.5415 14.1663 8.5415Z" fill="#6F5EB6"/>
<path d="M11.6663 12.7085H5.83301C5.49134 12.7085 5.20801 12.4252 5.20801 12.0835C5.20801 11.7418 5.49134 11.4585 5.83301 11.4585H11.6663C12.008 11.4585 12.2913 11.7418 12.2913 12.0835C12.2913 12.4252 12.008 12.7085 11.6663 12.7085Z" fill="#6F5EB6"/>
</svg>
