<svg width="34" height="35" viewBox="0 0 34 35" fill="none" xmlns="http://www.w3.org/2000/svg">
<path d="M26.5405 21.2638L26.5432 21.2682C26.9372 21.9175 27.0053 22.6781 26.7452 23.3714C26.4794 24.0798 25.9371 24.6069 25.2431 24.8359L25.2431 24.8359L25.2375 24.8378C22.5957 25.7267 19.8136 26.1655 17.0281 26.1655C14.2426 26.1655 11.4622 25.7267 8.82305 24.825L8.82104 24.8244C8.01969 24.5525 7.469 24.0125 7.2458 23.3868L7.24583 23.3867L7.24297 23.3789C7.00378 22.7256 7.07267 21.9864 7.50213 21.2627C7.50259 21.2619 7.50304 21.2612 7.50349 21.2604L8.9314 18.8895L8.93548 18.8827L8.93946 18.8758C9.14921 18.5148 9.31862 18.0454 9.4349 17.6159C9.551 17.1871 9.64142 16.6973 9.64142 16.2823V12.683C9.64142 9.77822 11.3244 7.25583 13.7633 6.03749L14.0398 5.89938L14.1901 5.62936C14.7535 4.61751 15.8108 3.98047 16.9856 3.98047C18.1831 3.98047 19.2098 4.59691 19.7691 5.59071L19.9239 5.86559L20.2083 6.00195C22.6938 7.19354 24.4148 9.73906 24.4148 12.683V16.2823C24.4148 16.6973 24.5052 17.187 24.621 17.6166C24.7374 18.0485 24.9056 18.5167 25.1108 18.8798L25.1172 18.8911L25.1239 18.9022L26.5405 21.2638Z" stroke="#4F39A5" stroke-width="2"/>
<path d="M21.009 28.6026C20.414 30.2529 18.8415 31.4337 16.9999 31.4337C15.8807 31.4337 14.7757 30.9784 13.9965 30.1675C13.5432 29.7407 13.2032 29.1717 13.0049 28.5884C13.189 28.6168 13.3732 28.6311 13.5715 28.6595C13.8974 28.7022 14.2374 28.7449 14.5774 28.7733C15.3849 28.8445 16.2065 28.8871 17.0282 28.8871C17.8357 28.8871 18.6432 28.8445 19.4365 28.7733C19.734 28.7449 20.0315 28.7306 20.3149 28.688C20.5415 28.6595 20.7682 28.6311 21.009 28.6026Z" fill="#4F39A5"/>
</svg>
