<svg width="21" height="20" viewBox="0 0 21 20" fill="none" xmlns="http://www.w3.org/2000/svg">
<path d="M11.7309 1.51014L13.4909 5.03014C13.7309 5.52014 14.3709 5.99014 14.9109 6.08014L18.1009 6.61014C20.1409 6.95014 20.6209 8.43014 19.1509 9.89014L16.6709 12.3701C16.2509 12.7901 16.0209 13.6001 16.1509 14.1801L16.8609 17.2501C17.4209 19.6801 16.1309 20.6201 13.9809 19.3501L10.9909 17.5801C10.4509 17.2601 9.56089 17.2601 9.01089 17.5801L6.02089 19.3501C3.88089 20.6201 2.58089 19.6701 3.14089 17.2501L3.85089 14.1801C3.98089 13.6001 3.75089 12.7901 3.33089 12.3701L0.850886 9.89014C-0.609114 8.43014 -0.139114 6.95014 1.90089 6.61014L5.09089 6.08014C5.62089 5.99014 6.26089 5.52014 6.50089 5.03014L8.26089 1.51014C9.22089 -0.399863 10.7809 -0.399863 11.7309 1.51014Z" fill="#EDAB00"/>
</svg>
