<svg width="11" height="10" viewBox="0 0 11 10" fill="none" xmlns="http://www.w3.org/2000/svg">
<path d="M5.41727 0.977493L5.41774 0.978431L6.29696 2.73688C6.40192 2.95002 6.57404 3.12715 6.74684 3.25466C6.92052 3.38281 7.14019 3.49426 7.37276 3.53302L7.37301 3.53306L8.96776 3.79802C8.96779 3.79803 8.96782 3.79803 8.96785 3.79804C8.9679 3.79805 8.96795 3.79805 8.96801 3.79806C9.39156 3.86871 9.48138 4.02681 9.49457 4.06783C9.50739 4.10774 9.52757 4.28718 9.22261 4.59006L9.2214 4.59127L7.9814 5.83127C7.80147 6.0112 7.68479 6.24736 7.62114 6.46972C7.55742 6.69231 7.53191 6.95314 7.58706 7.19918L7.58705 7.19918L7.58781 7.20249L7.94273 8.73711C7.94273 8.73714 7.94274 8.73717 7.94275 8.7372C8.07299 9.30244 7.92512 9.43838 7.92353 9.43954C7.92108 9.44133 7.74487 9.53993 7.24466 9.24456C7.24463 9.24455 7.24461 9.24453 7.24458 9.24452C7.24447 9.24445 7.24436 9.24439 7.24425 9.24432L5.74986 8.35968C5.51889 8.22281 5.24618 8.16982 5.00183 8.16982C4.75702 8.16982 4.48498 8.22297 4.25351 8.35765L4.2535 8.35764L4.25025 8.35956L2.75525 9.24456L2.75478 9.24484C2.25919 9.53895 2.08228 9.44061 2.07842 9.43779C2.07495 9.43526 1.92747 9.29768 2.05708 8.73755L2.0571 8.73749L2.4121 7.20249L2.41211 7.20249L2.41285 7.19918C2.468 6.95314 2.44249 6.69231 2.37877 6.46972C2.31512 6.24736 2.19844 6.0112 2.01851 5.83127L0.778508 4.59127C0.475511 4.28827 0.494388 4.10801 0.507509 4.06692C0.520477 4.02631 0.608856 3.86863 1.0319 3.79806C1.03199 3.79805 1.03207 3.79803 1.03215 3.79802L2.6269 3.53306L2.6269 3.53307L2.62866 3.53277C2.85924 3.49361 3.07748 3.38161 3.24963 3.25396C3.42116 3.12678 3.59306 2.94986 3.69794 2.73688L4.5767 0.979366C4.57677 0.979222 4.57684 0.979078 4.57692 0.978934C4.7807 0.57373 4.96237 0.538574 4.99933 0.538574C5.0354 0.538574 5.21591 0.572646 5.41727 0.977493Z" fill="#FFEEC4" stroke="#EDAB00" stroke-linecap="round" stroke-linejoin="round"/>
</svg>
