<svg width="18" height="18" viewBox="0 0 18 18" fill="none" xmlns="http://www.w3.org/2000/svg">
<path d="M12.5005 11H11.7105L11.4305 10.73C12.4105 9.59 13.0005 8.11 13.0005 6.5C13.0005 2.91 10.0905 0 6.50049 0C2.91049 0 0.000488281 2.91 0.000488281 6.5C0.000488281 10.09 2.91049 13 6.50049 13C8.11049 13 9.59049 12.41 10.7305 11.43L11.0005 11.71V12.5L16.0005 17.49L17.4905 16L12.5005 11ZM6.50049 11C4.01049 11 2.00049 8.99 2.00049 6.5C2.00049 4.01 4.01049 2 6.50049 2C8.99049 2 11.0005 4.01 11.0005 6.5C11.0005 8.99 8.99049 11 6.50049 11Z" fill="#4F39A5"/>
</svg>
