<svg width="20" height="20" viewBox="0 0 20 20" fill="none" xmlns="http://www.w3.org/2000/svg">
<path d="M12.9172 11.6667H12.2588L12.0255 11.4417C12.8422 10.4917 13.3338 9.25833 13.3338 7.91667C13.3338 4.925 10.9088 2.5 7.91715 2.5C4.92549 2.5 2.50049 4.925 2.50049 7.91667C2.50049 10.9083 4.92549 13.3333 7.91715 13.3333C9.25882 13.3333 10.4922 12.8417 11.4422 12.025L11.6672 12.2583V12.9167L15.8338 17.075L17.0755 15.8333L12.9172 11.6667ZM7.91715 11.6667C5.84215 11.6667 4.16715 9.99167 4.16715 7.91667C4.16715 5.84167 5.84215 4.16667 7.91715 4.16667C9.99216 4.16667 11.6672 5.84167 11.6672 7.91667C11.6672 9.99167 9.99216 11.6667 7.91715 11.6667Z" fill="white"/>
</svg>
