<svg width="24" height="24" viewBox="0 0 24 24" fill="none" xmlns="http://www.w3.org/2000/svg">
<path d="M6.17857 21.4989H2V7.57031H6.17857V21.4989ZM21.5 21.4989H17.3214V14.0582C17.3214 12.1194 16.6306 11.1541 15.2614 11.1541C14.1764 11.1541 13.4883 11.6946 13.1429 12.7768C13.1429 14.5346 13.1429 21.4989 13.1429 21.4989H8.96429C8.96429 21.4989 9.02 8.96317 8.96429 7.57031H12.2626L12.5175 10.356H12.6038C13.4604 8.96317 14.8296 8.01881 16.7072 8.01881C18.1349 8.01881 19.2895 8.41578 20.1712 9.41306C21.0585 10.4117 21.5 11.7517 21.5 13.6334V21.4989Z" fill="white"/>
<path d="M4.15893 6.17857C5.35127 6.17857 6.31786 5.24317 6.31786 4.08929C6.31786 2.93541 5.35127 2 4.15893 2C2.96659 2 2 2.93541 2 4.08929C2 5.24317 2.96659 6.17857 4.15893 6.17857Z" fill="white"/>
</svg>
