<svg width="36" height="36" viewBox="0 0 36 36" fill="none" xmlns="http://www.w3.org/2000/svg">
<g clip-path="url(#clip0_436_3460)">
<path d="M24.1875 3.9375H11.8125C9.72392 3.9375 7.72088 4.76718 6.24403 6.24403C4.76718 7.72088 3.9375 9.72392 3.9375 11.8125V24.1875C3.9375 26.2761 4.76718 28.2791 6.24403 29.756C7.72088 31.2328 9.72392 32.0625 11.8125 32.0625H24.1875C26.2761 32.0625 28.2791 31.2328 29.756 29.756C31.2328 28.2791 32.0625 26.2761 32.0625 24.1875C32.0625 24.1875 32.0625 13.9011 32.0625 11.8125C32.0625 9.72392 31.2328 7.72088 29.756 6.24403C28.2791 4.76718 26.2761 3.9375 24.1875 3.9375Z" fill="#3480CC"/>
<path d="M16.5 15.6943V24.6943" stroke="white" stroke-width="2" stroke-linecap="round" stroke-linejoin="round"/>
<path d="M12 15.6943V24.6943" stroke="white" stroke-width="2" stroke-linecap="round" stroke-linejoin="round"/>
<path d="M12.0066 9.69434C12.835 9.69434 13.5066 10.3659 13.5066 11.1943C13.5066 11.9636 12.9275 12.5976 12.1815 12.6842L12.0066 12.6943C11.1716 12.6943 10.5 12.0228 10.5 11.1943C10.5 10.4251 11.0791 9.79108 11.8251 9.70443L12.0066 9.69434Z" fill="white"/>
<path d="M16.5 24.6943V20.1943C16.5 17.7091 18.5147 15.6943 21 15.6943C23.4853 15.6943 25.5 17.7091 25.5 20.1943V24.6943" stroke="white" stroke-width="2" stroke-linecap="round" stroke-linejoin="round"/>
</g>
<defs>
<clipPath id="clip0_436_3460">
<rect width="36" height="36" fill="white"/>
</clipPath>
</defs>
</svg>
