<svg width="24" height="24" viewBox="0 0 24 24" fill="none" xmlns="http://www.w3.org/2000/svg">
<path fill-rule="evenodd" clip-rule="evenodd" d="M19.3685 5.41005C20.2075 5.63579 20.8682 6.30087 21.0925 7.14526C21.5 8.67585 21.5 11.8693 21.5 11.8693C21.5 11.8693 21.5 15.0628 21.0925 16.5933C20.8682 17.4377 20.2075 18.0751 19.3685 18.3009C17.8478 18.711 11.75 18.711 11.75 18.711C11.75 18.711 5.6522 18.711 4.13144 18.3009C3.29247 18.0751 2.63172 17.4378 2.40747 16.5934C2 15.0629 2 11.8693 2 11.8693C2 11.8693 2 8.67585 2.40747 7.14531C2.63172 6.30087 3.29247 5.63583 4.13144 5.4101C5.6522 5 11.75 5 11.75 5C11.75 5 17.8478 5 19.3685 5.41005ZM9.75565 8.96979V14.7687L14.8522 11.8693L9.75565 8.96979Z" fill="white"/>
</svg>
