<svg width="24" height="24" viewBox="0 0 24 24" fill="none" xmlns="http://www.w3.org/2000/svg">
<path d="M21.5 5.87586C20.7831 6.19451 20.0117 6.40945 19.2022 6.50563C20.0287 6.01084 20.6624 5.22709 20.9613 4.29213C20.1882 4.7509 19.3324 5.08379 18.4208 5.2635C17.6913 4.48608 16.6514 4 15.5007 4C13.2916 4 11.5004 5.79115 11.5004 8.0007C11.5004 8.31381 11.5357 8.61899 11.6041 8.91231C8.27912 8.74527 5.33095 7.15282 3.35771 4.73229C3.01334 5.32288 2.81621 6.01005 2.81621 6.74393C2.81621 8.13172 3.52238 9.35643 4.59588 10.0737C3.94038 10.0527 3.32328 9.8726 2.78375 9.57296C2.78336 9.58958 2.78336 9.6066 2.78336 9.62362C2.78336 11.5616 4.16244 13.1782 5.99278 13.5463C5.65712 13.6374 5.30364 13.6865 4.93868 13.6865C4.68059 13.6865 4.43003 13.6615 4.1858 13.6144C4.69524 15.2037 6.17249 16.3607 7.92287 16.3928C6.55368 17.4659 4.82903 18.1056 2.95436 18.1056C2.63175 18.1056 2.31311 18.0866 2 18.0494C3.77096 19.185 5.87364 19.8468 8.13267 19.8468C15.4916 19.8468 19.5153 13.751 19.5153 8.46422C19.5153 8.29085 19.5117 8.11787 19.5042 7.94607C20.2856 7.3832 20.964 6.67822 21.5 5.87586Z" fill="white"/>
</svg>
