<svg width="36" height="36" viewBox="0 0 36 36" fill="none" xmlns="http://www.w3.org/2000/svg">
<g clip-path="url(#clip0_436_3480)">
<path fill-rule="evenodd" clip-rule="evenodd" d="M5.39809 4H30.6019C31.3741 4 32 4.62408 32 5.39811V30.6019C32 31.374 31.3759 32 30.6019 32H5.39809C4.62594 32 4 31.3759 4 30.6019V5.39811C4 4.62595 4.62407 4 5.39809 4Z" fill="#57BA63"/>
<path fill-rule="evenodd" clip-rule="evenodd" d="M18.0335 25.5697C16.6986 25.5697 15.4445 25.2285 14.3535 24.6298L10.1387 25.9691L11.5126 21.9161C10.8196 20.7777 10.4204 19.4426 10.4204 18.0156C10.4204 13.8435 13.8288 10.4614 18.0336 10.4614C22.2379 10.4614 25.6464 13.8435 25.6464 18.0156C25.6464 22.1876 22.2381 25.5697 18.0335 25.5697ZM18.0335 11.6645C14.5039 11.6645 11.6329 14.5136 11.6329 18.0156C11.6329 19.4052 12.0859 20.6922 12.852 21.7393L12.0525 24.0979L14.512 23.3161C15.5227 23.9797 16.7334 24.3666 18.0335 24.3666C21.5625 24.3666 24.434 21.5177 24.434 18.0157C24.434 14.5138 21.5625 11.6645 18.0335 11.6645ZM21.8776 19.7554C21.8308 19.6783 21.7064 19.6318 21.5201 19.5393C21.3333 19.4468 20.4156 18.9986 20.2449 18.9371C20.0736 18.8754 19.949 18.8442 19.8248 19.0296C19.7005 19.215 19.3428 19.6318 19.2337 19.7554C19.1248 19.8791 19.0161 19.8946 18.8295 19.8019C18.6431 19.7094 18.0417 19.5138 17.3287 18.883C16.7741 18.3922 16.3995 17.7864 16.2907 17.6008C16.1818 17.4156 16.2792 17.3155 16.3726 17.2233C16.4565 17.1402 16.5592 17.0071 16.6526 16.899C16.746 16.7908 16.777 16.7138 16.839 16.5901C16.9014 16.4665 16.8702 16.3585 16.8235 16.2656C16.7768 16.1731 16.4034 15.2619 16.248 14.8911C16.0926 14.5207 15.9373 14.5823 15.8283 14.5823C15.7194 14.5823 15.595 14.5668 15.4706 14.5668C15.3462 14.5668 15.1439 14.6132 14.9728 14.7984C14.8018 14.9838 14.3199 15.4318 14.3199 16.3428C14.3199 17.254 14.9883 18.1343 15.0818 18.2577C15.175 18.381 16.3724 20.3116 18.2693 21.053C20.167 21.7943 20.167 21.547 20.5092 21.5162C20.8508 21.4853 21.6128 21.0683 21.7687 20.636C21.924 20.2034 21.924 19.8325 21.8776 19.7554Z" fill="white"/>
</g>
<defs>
<clipPath id="clip0_436_3480">
<rect x="4" y="4" width="28" height="28" rx="8" fill="white"/>
</clipPath>
</defs>
</svg>
