<svg width="36" height="36" viewBox="0 0 36 36" fill="none" xmlns="http://www.w3.org/2000/svg">
<g clip-path="url(#clip0_436_3496)">
<path d="M33.75 12.1499L30 14.2124L26.25 17.7749V29.9999H31.5C32.7428 29.9999 33.75 28.9927 33.75 27.7499V12.1499Z" fill="#4CAF50"/>
<path d="M2.25 12.1499L4.9605 13.4324L9.75 17.7749V29.9999H4.5C3.25725 29.9999 2.25 28.9927 2.25 27.7499V12.1499Z" fill="#1E88E5"/>
<path d="M26.25 8.3999L18 14.5874L9.75 8.3999L9 12.7499L9.75 17.7749L18 23.9624L26.25 17.7749L27 12.7499L26.25 8.3999Z" fill="#E53935"/>
<path d="M2.25 9.2235V12.15L9.75 17.775V8.4L7.407 6.64425C6.849 6.22575 6.171 6 5.4735 6C3.693 6 2.25 7.443 2.25 9.2235Z" fill="#C62828"/>
<path d="M33.75 9.2235V12.15L26.25 17.775V8.4L28.593 6.64425C29.151 6.22575 29.829 6 30.5265 6C32.307 6 33.75 7.443 33.75 9.2235Z" fill="#FBC02D"/>
</g>
<defs>
<clipPath id="clip0_436_3496">
<rect width="36" height="36" fill="white"/>
</clipPath>
</defs>
</svg>
