<svg width="36" height="36" viewBox="0 0 36 36" fill="none" xmlns="http://www.w3.org/2000/svg">
<g clip-path="url(#clip0_436_3489)">
<path d="M28.5 32H7.5C5.568 32 4 30.432 4 28.5V7.5C4 5.568 5.568 4 7.5 4H28.5C30.432 4 32 5.568 32 7.5V28.5C32 30.432 30.432 32 28.5 32Z" fill="#1DA1F2"/>
<path d="M14.7528 25.1122C21.3538 25.1122 24.9658 19.6382 24.9658 14.8992C24.9658 14.7452 24.9658 14.5912 24.9588 14.4372C25.6588 13.9332 26.2678 13.2962 26.7508 12.5752C26.1068 12.8622 25.4138 13.0512 24.6858 13.1422C25.4278 12.7012 25.9948 11.9942 26.2678 11.1542C25.5748 11.5672 24.8048 11.8612 23.9858 12.0222C23.3278 11.3222 22.3968 10.8882 21.3678 10.8882C19.3868 10.8882 17.7768 12.4982 17.7768 14.4792C17.7768 14.7592 17.8118 15.0322 17.8678 15.2982C14.8858 15.1512 12.2398 13.7162 10.4688 11.5462C10.1608 12.0782 9.98581 12.6942 9.98581 13.3522C9.98581 14.5982 10.6228 15.6972 11.5818 16.3412C10.9938 16.3202 10.4408 16.1592 9.95781 15.8932V15.9422C9.95781 17.6782 11.1968 19.1342 12.8348 19.4632C12.5338 19.5472 12.2188 19.5892 11.8898 19.5892C11.6588 19.5892 11.4348 19.5682 11.2178 19.5262C11.6728 20.9542 13.0028 21.9902 14.5708 22.0182C13.3388 22.9842 11.7918 23.5582 10.1118 23.5582C9.82481 23.5582 9.53781 23.5442 9.25781 23.5092C10.8398 24.5172 12.7298 25.1122 14.7528 25.1122Z" fill="white"/>
</g>
<defs>
<clipPath id="clip0_436_3489">
<rect x="4" y="4" width="28" height="28" rx="8" fill="white"/>
</clipPath>
</defs>
</svg>
