<svg width="48" height="48" viewBox="0 0 48 48" fill="none" xmlns="http://www.w3.org/2000/svg">
<path d="M30 43H18C13.0986 43 9.92781 42.0136 7.95711 40.0429C5.9864 38.0722 5 34.9014 5 30V18C5 13.0986 5.9864 9.92781 7.95711 7.95711C9.92781 5.9864 13.0986 5 18 5H30C34.9014 5 38.0722 5.9864 40.0429 7.95711C42.0136 9.92781 43 13.0986 43 18V30C43 34.9014 42.0136 38.0722 40.0429 40.0429C38.0722 42.0136 34.9014 43 30 43Z" stroke="#6F5EB6" stroke-width="2" stroke-linecap="round" stroke-linejoin="round"/>
<path d="M15.5 23.9998L21.16 29.6598L32.5 18.3398" stroke="#6F5EB6" stroke-width="2" stroke-linecap="round" stroke-linejoin="round"/>
</svg>
