<svg width="40" height="40" viewBox="0 0 40 40" fill="none" xmlns="http://www.w3.org/2000/svg">
<path d="M28.38 0H11.62C4.34 0 0 4.34 0 11.62V28.36C0 35.66 4.34 40 11.62 40H28.36C35.64 40 39.98 35.66 39.98 28.38V11.62C40 4.34 35.66 0 28.38 0ZM29.56 15.4L18.22 26.74C17.94 27.02 17.56 27.18 17.16 27.18C16.76 27.18 16.38 27.02 16.1 26.74L10.44 21.08C9.86 20.5 9.86 19.54 10.44 18.96C11.02 18.38 11.98 18.38 12.56 18.96L17.16 23.56L27.44 13.28C28.02 12.7 28.98 12.7 29.56 13.28C30.14 13.86 30.14 14.8 29.56 15.4Z" fill="#4F39A5"/>
</svg>
