<svg width="18" height="18" viewBox="0 0 18 18" fill="none" xmlns="http://www.w3.org/2000/svg">
<path d="M16.5 5.8575V12.135C16.5 14.865 14.8725 16.4925 12.1425 16.4925H5.8575C3.1275 16.5 1.5 14.8725 1.5 12.1425V5.8575C1.5 3.1275 3.1275 1.5 5.8575 1.5H12.135C14.8725 1.5 16.5 3.1275 16.5 5.8575Z" fill="#6F5EB6"/>
<path d="M9.39747 4.1025L12.615 7.32C12.8325 7.5375 12.8325 7.8975 12.615 8.115C12.3975 8.3325 12.0375 8.3325 11.82 8.115L9.56247 5.8575V13.5C9.56247 13.8075 9.30747 14.0625 8.99997 14.0625C8.69247 14.0625 8.43747 13.8075 8.43747 13.5V5.8575L6.17997 8.115C5.96247 8.3325 5.60247 8.3325 5.38497 8.115C5.27247 8.0025 5.21997 7.86 5.21997 7.7175C5.21997 7.575 5.27997 7.425 5.38497 7.32L8.60247 4.1025C8.70747 3.9975 8.84997 3.9375 8.99997 3.9375C9.14997 3.9375 9.29247 3.9975 9.39747 4.1025Z" fill="white"/>
</svg>
