<svg width="114" height="126" viewBox="0 0 114 126" fill="none" xmlns="http://www.w3.org/2000/svg">
<path d="M103.938 24.5625L66.8125 3.125C60.75 -0.375 53.25 -0.375 47.125 3.125L10.0625 24.5625C4 28.0625 0.25 34.5625 0.25 41.625V84.375C0.25 91.375 4 97.875 10.0625 101.437L47.1875 122.875C53.25 126.375 60.75 126.375 66.875 122.875L104 101.437C110.063 97.9375 113.813 91.4375 113.813 84.375V41.625C113.75 34.5625 110 28.125 103.938 24.5625ZM71.0625 71.75L64.5625 75.5L58.0625 79.25C49.75 84.0625 42.9375 80.125 42.9375 70.5V63V55.5C42.9375 45.875 49.75 41.9375 58.0625 46.75L64.5625 50.5L71.0625 54.25C79.375 59.0625 79.375 66.9375 71.0625 71.75Z" fill="#A79CD2"/>
</svg>
