<svg width="96" height="96" viewBox="0 0 96 96" fill="none" xmlns="http://www.w3.org/2000/svg">
<path d="M64.76 8H31.24C16.68 8 8 16.68 8 31.24V64.72C8 79.32 16.68 88 31.24 88H64.72C79.28 88 87.96 79.32 87.96 64.76V31.24C88 16.68 79.32 8 64.76 8Z" fill="#E1DCF3"/>
<path d="M36.3999 48V42.08C36.3999 34.44 41.7999 31.36 48.3999 35.16L53.5199 38.12L58.6399 41.08C65.2399 44.88 65.2399 51.12 58.6399 54.92L53.5199 57.88L48.3999 60.84C41.7999 64.64 36.3999 61.52 36.3999 53.92V48Z" fill="#6F5EB6"/>
</svg>
