<svg width="24" height="24" viewBox="0 0 24 24" fill="none" xmlns="http://www.w3.org/2000/svg">
<path d="M0.333985 11.9997C0.333985 5.55967 5.56065 0.333008 12.0007 0.333007C18.4407 0.333007 23.6673 5.55967 23.6673 11.9997C23.6673 18.4397 18.4407 23.6663 12.0007 23.6663C5.56065 23.6663 0.333985 18.4397 0.333985 11.9997ZM13.2023 16.118L16.7023 12.618C16.8773 12.443 16.959 12.2213 16.959 11.9997C16.959 11.778 16.8773 11.5563 16.7023 11.3813L13.2023 7.88134C12.864 7.54301 12.304 7.54301 11.9657 7.88134C11.6273 8.21968 11.6273 8.77967 11.9657 9.11801L13.9723 11.1247L7.91732 11.1247C7.43898 11.1247 7.04232 11.5213 7.04232 11.9997C7.04232 12.478 7.43898 12.8747 7.91732 12.8747L13.9723 12.8747L11.9657 14.8813C11.6273 15.2197 11.6273 15.7797 11.9657 16.118C12.304 16.4563 12.864 16.4563 13.2023 16.118Z" fill="#4F39A5"/>
</svg>
